<svg version="1.2" xmlns="http://www.w3.org/2000/svg" viewBox="0 0 1134 1134" width="1134" height="1134">
	<style>
		.s0 { fill: #f9a719 } 
		.s1 { fill: #4f5252 } 
	</style>
	<g id="Layer 1">
		<g id="&lt;Group&gt;">
			<g id="&lt;Group&gt;">
				<g id="&lt;Group&gt;">
					<g id="&lt;Group&gt;">
						<g id="&lt;Group&gt;">
							<g id="&lt;Group&gt;">
								<path id="&lt;Path&gt;" class="s0" d="m620.13 530.65h-13.14c-12.17 0-22.07-9.9-22.07-22.07v-59.47c0-4.37-3.22-8.06-7.03-8.06h-18.19c-10.52 0-19.08-9.9-19.08-22.06v-16.22c0-11.88 9.43-21.59 21.19-22.05q0.25-0.02 0.49-0.02h48.3c3.87 0 7.01 3.14 7.01 7.01 0 3.87-3.14 7.01-7.01 7.01h-47.92c-4.44 0-8.05 3.61-8.05 8.05v16.22c0 4.61 2.68 8.05 5.07 8.05h18.19c11.6 0 21.04 9.9 21.04 22.07v59.47c0 4.44 3.62 8.06 8.06 8.06h13.14c4.44 0 8.05-3.62 8.05-8.06v-164.13c0-3.87 3.14-7 7.01-7h31.16c12.16 0 22.06 9.89 22.06 22.06v13.14c0 12.17-9.12 22.07-20.33 22.07h-9.56c-3.87 0-7.01-3.14-7.01-7.01 0-3.87 3.14-7.01 7.01-7.01h9.56c3.42 0 6.32-3.68 6.32-8.05v-13.14c0-4.44-3.61-8.05-8.05-8.05h-24.16v157.12c0 12.17-9.9 22.07-22.06 22.07z"/>
							</g>
							<path id="&lt;Path&gt;" class="s0" d="m666.35 380.68h-2.64v14.01h2.64c4.44 0 8.05 3.62 8.05 8.06v13.14c0 4.36-2.9 8.05-6.32 8.05h-13.33c-3.87 0-7.01 3.14-7.01 7.01 0 3.87 3.14 7 7.01 7h13.33c11.21 0 20.33-9.9 20.33-22.06v-13.14c0-12.17-9.9-22.07-22.06-22.07z"/>
						</g>
					</g>
					<path id="&lt;Path&gt;" class="s0" d="m478.33 402.12c-1.84 1.06-3.06 2.92-3.35 4.99l-0.08 27.4c0 3.28 2.15 6.18 5.12 6.91 2.09 0.52 4.24 0.07 5.9-1.24 1.67-1.3 2.63-3.26 2.63-5.37v-22.89l25.46-14.71c2.42-1.1 3.99-3.53 3.99-6.19v-13.46l25.46-14.7c2.42-1.12 3.99-3.56 3.99-6.21v-36.89c0-3.76-3.07-6.83-6.83-6.83-3.77 0-6.83 3.07-6.83 6.83v32.98l-22.62 13.05-22.62-13.05v-13.73l15.8-9.12v20.32c0 3.27 2.15 6.18 5.12 6.9 2.09 0.51 4.25 0.06 5.91-1.24 1.66-1.31 2.62-3.26 2.62-5.37v-43.77l18.89-10.9c2.07-1.2 3.41-3.22 3.58-5.43 0.21-2.59-0.97-4.95-3.14-6.33-2.15-1.35-4.84-1.4-7.04-0.14l-25.94 14.99v15.27l-29.45 17.01v21.54l-29.45 17v89.13l29.45 17.02v21.54l29.45 17v15.27l25.68 14.83c1.24 0.71 2.56 1.07 3.85 1.07q1.35 0 2.6-0.52c1.91-0.8 3.26-2.43 3.8-4.59 0.76-2.99-0.52-6.04-3.18-7.58l-19.1-11.03v-44.39c0-3.3-2.17-6.2-5.17-6.9-2.09-0.49-4.24-0.03-5.89 1.27-1.65 1.3-2.59 3.25-2.59 5.36v21.5l-15.8-9.12v-13.71l22.62-13.07 22.62 13.07v31.65c0 3.76 3.06 6.82 6.83 6.82 3.76 0 6.83-3.06 6.83-6.82v-35.56c0-2.66-1.55-5.08-3.95-6.19l-25.5-14.73v-28.05c0-3.29-2.17-6.19-5.17-6.9-2.09-0.49-4.24-0.03-5.89 1.27-1.65 1.31-2.59 3.26-2.59 5.36v28.32l-22.63 13.06-22.62-13.06v-48.06l30.62-17.68c1.58-0.91 2.7-2.37 3.18-4.13 0.47-1.75 0.23-3.58-0.67-5.15-0.9-1.58-2.36-2.7-4.11-3.18-1.75-0.48-3.59-0.24-5.17 0.67l-23.85 13.76v-9.73l22.62-13.06 22.63 13.06v9.53z"/>
				</g>
				<g id="&lt;Group&gt;">
					<path id="&lt;Path&gt;" class="s0" d="m516.76 575.15c0-3.87 3.14-7 7.01-7h86.32c3.87 0 7.01 3.13 7.01 7 0 3.87-3.14 7.01-7.01 7.01h-86.32c-3.87 0-7.01-3.14-7.01-7.01z"/>
					<path id="&lt;Path&gt;" class="s0" d="m516.76 593.06c0-3.87 3.14-7.01 7.01-7.01h86.32c3.87 0 7.01 3.14 7.01 7.01 0 3.87-3.14 7-7.01 7h-86.32c-3.87 0-7.01-3.13-7.01-7z"/>
					<path id="&lt;Path&gt;" class="s0" d="m548.8 603.96h36.26c0 7.74-6.27 14.01-14.01 14.01h-8.24c-7.74 0-14.01-6.27-14.01-14.01z"/>
				</g>
			</g>
			<g id="&lt;Group&gt;">
				<g id="&lt;Group&gt;">
					<path id="&lt;Compound Path&gt;" class="s1" d="m245.85 709.63c-0.47-1.86-0.47-4.51-0.47-6.38 0-1.25 0-3.28 0.62-6.71h59.41c0.62 3.43 0.62 5.46 0.62 6.71 0 1.87 0 4.52-0.47 6.38h-22.76v64.09c-3.43 0.78-5.93 0.78-6.86 0.78-1.41 0-3.74 0-7.18-0.78v-64.09z"/>
					<path id="&lt;Compound Path&gt;" class="s1" d="m333.32 741.44v21.21h38.82c0.78 2.65 0.78 3.74 0.78 5.14 0 1.56 0 3.75-0.78 6.71h-52.85v-77.96h52.85c0.78 3.43 0.78 5.46 0.78 6.71 0 1.87 0 4.52-0.46 6.38h-39.14v19.96h33.99c0.78 2.66 0.78 3.75 0.78 5.15 0 1.56 0 3.74-0.78 6.7z"/>
					<path id="&lt;Compound Path&gt;" fill-rule="evenodd" class="s1" d="m392.1 696.54h32.12c14.66 0 26.82 0.63 26.82 26.04 0 12.94-3.59 19.18-8.73 22.45l8.42 27.76c-2.19 1.24-5.15 1.71-7.64 1.71-1.72 0-3.9 0-6.55-0.94l-7.95-25.1h-22.46v25.26c-3.27 0.78-5.77 0.78-7.01 0.78-1.25 0-3.59 0-7.02-0.78zm44.91 26.03c0-12-7.33-12.94-12.95-12.94h-17.93v26.98h17.93c5.62 0 12.95-2.19 12.95-14.04z"/>
					<path id="&lt;Compound Path&gt;" fill-rule="evenodd" class="s1" d="m527.6 772.47c-2.34 1.25-5.62 2.03-7.96 2.03-1.55 0-3.74 0-6.54-0.94l-7.33-22.91h-22.92c-2.5 7.32-4.99 15.74-7.17 22.91-2.65 0.94-4.99 0.94-6.55 0.94-2.34 0-5.46-0.62-7.95-2.03l23.69-74.21c4.84-1.72 6.09-1.72 9.67-1.72 3.43 0 4.68 0 9.36 1.72zm-25.89-34.93l-7.17-23.23c-2.65 8.1-4.99 14.81-7.48 23.23z"/>
					<path id="&lt;Compound Path&gt;" fill-rule="evenodd" class="s1" d="m616.71 735.52c4.83 3.28 6.23 8.27 6.23 15.75 0 23.07-12.31 23.23-26.81 23.23h-32.59v-77.96h32.59c14.5 0 26.81 0 26.81 23.08 0 7.95-1.4 12.32-6.23 15.9zm-20.74-25.89h-18.4v20.13h18.4c5.62 0 12.94-1.26 12.94-10.14 0-9.04-7.32-9.99-12.94-9.99zm12.94 42.57c0-8.57-7.32-10.6-12.94-10.6h-18.4v21.05h18.4c5.62 0 12.94-1.25 12.94-10.45z"/>
					<path id="&lt;Compound Path&gt;" fill-rule="evenodd" class="s1" d="m640.88 696.54h32.12c14.65 0 26.82 0.63 26.82 26.04 0 12.94-3.59 19.18-8.74 22.45l8.42 27.76c-2.18 1.24-5.14 1.71-7.64 1.71-1.71 0-3.89 0-6.55-0.94l-7.95-25.1h-22.45v25.26c-3.27 0.78-5.77 0.78-7.02 0.78-1.24 0-3.58 0-7.01-0.78zm44.9 26.03c0-12-7.33-12.94-12.94-12.94h-17.93v26.98h17.93c5.61 0 12.94-2.19 12.94-14.04z"/>
					<path id="&lt;Compound Path&gt;" fill-rule="evenodd" class="s1" d="m776.37 772.47c-2.34 1.25-5.61 2.03-7.95 2.03-1.56 0-3.74 0-6.55-0.94l-7.33-22.91h-22.92c-2.49 7.32-4.99 15.74-7.17 22.91-2.65 0.94-4.99 0.94-6.55 0.94-2.34 0-5.45-0.62-7.95-2.03l23.7-74.21c4.83-1.72 6.08-1.72 9.67-1.72 3.43 0 4.68 0 9.35 1.72zm-25.88-34.93l-7.17-23.23c-2.65 8.1-4.99 14.81-7.49 23.23z"/>
					<path id="&lt;Compound Path&gt;" class="s1" d="m802.88 773.88c-3.43 0.62-5.77 0.62-7.01 0.62-1.25 0-3.74 0-7.02-0.62v-76.71c3.28-0.63 5.77-0.63 7.02-0.63 1.24 0 3.58 0 7.01 0.63z"/>
					<path id="&lt;Compound Path&gt;" class="s1" d="m874.45 697.48c2.96-0.94 5.61-0.94 7.17-0.94 2.34 0 4.21 0 6.86 1.56v74.53c-5.14 1.87-9.04 1.87-12.31 1.87-1.88 0-4.68 0-7.64-0.94l-31.34-57.84v57.69c-3.12 1.09-5.77 1.09-7.33 1.09-2.19 0-3.9 0-6.71-1.71v-74.38c5.15-1.87 7.33-1.87 10.92-1.87 3.43 0 4.83 0 9.35 1.56l31.03 56.91z"/>
				</g>
				<g id="&lt;Group&gt;">
					<path id="&lt;Compound Path&gt;" class="s1" d="m392.86 850.62c-1.22 0.22-2.05 0.22-2.49 0.22-0.44 0-1.32 0-2.48-0.22v-27.14c1.16-0.23 2.04-0.23 2.48-0.23 0.44 0 1.27 0 2.49 0.23z"/>
					<path id="&lt;Compound Path&gt;" class="s1" d="m419.83 823.58c1.05-0.33 1.99-0.33 2.54-0.33 0.83 0 1.49 0 2.43 0.56v26.37c-1.82 0.66-3.2 0.66-4.36 0.66-0.66 0-1.66 0-2.7-0.33l-11.1-20.47v20.42c-1.1 0.38-2.04 0.38-2.59 0.38-0.77 0-1.38 0-2.37-0.6v-26.32c1.82-0.67 2.59-0.67 3.86-0.67 1.21 0 1.71 0 3.31 0.56l10.98 20.14z"/>
					<path id="&lt;Compound Path&gt;" class="s1" d="m431.3 827.89c-0.17-0.66-0.17-1.6-0.17-2.26 0-0.44 0-1.16 0.22-2.38h21.03c0.22 1.22 0.22 1.94 0.22 2.38 0 0.66 0 1.6-0.17 2.26h-8.06v22.68c-1.21 0.27-2.09 0.27-2.42 0.27-0.5 0-1.33 0-2.54-0.27v-22.68z"/>
					<path id="&lt;Compound Path&gt;" class="s1" d="m463.9 839.15v7.5h13.74c0.27 0.94 0.27 1.33 0.27 1.82 0 0.55 0 1.33-0.27 2.37h-18.71v-27.59h18.71c0.27 1.22 0.27 1.94 0.27 2.38 0 0.66 0 1.6-0.16 2.26h-13.85v7.06h12.03c0.27 0.94 0.27 1.33 0.27 1.82 0 0.55 0 1.33-0.27 2.38z"/>
					<path id="&lt;Compound Path&gt;" class="s1" d="m504.5 823.58c1.04-0.33 1.98-0.33 2.53-0.33 0.83 0 1.49 0 2.43 0.56v26.37c-1.82 0.66-3.2 0.66-4.36 0.66-0.66 0-1.65 0-2.7-0.33l-11.09-20.47v20.42c-1.11 0.38-2.04 0.38-2.6 0.38-0.77 0-1.38 0-2.37-0.6v-26.32c1.82-0.67 2.6-0.67 3.86-0.67 1.22 0 1.72 0 3.32 0.56l10.98 20.14z"/>
					<path id="&lt;Compound Path&gt;" class="s1" d="m528.16 846.93c2.59 0 5.24-0.28 5.24-4.36 0-3.86-15.95-2.59-15.95-11.65 0-5.9 4.19-7.94 10.82-7.94 2.53 0 6.73 0.38 9.32 1.38-0.11 1.82-0.22 2.65-1.27 4.36-1.71-0.67-5.41-1.11-7.94-1.11-4.09 0-5.96 0.28-5.96 3.31 0 4.36 15.94 3.09 15.94 11.65 0 7.94-5.29 8.55-10.26 8.55-2.92 0-8.66-0.44-10.93-2.65 0.06-1.54 0.5-2.65 1.94-3.92 3.25 1.88 7.28 2.38 9.05 2.38z"/>
					<path id="&lt;Compound Path&gt;" class="s1" d="m551.04 850.62c-1.21 0.22-2.04 0.22-2.48 0.22-0.44 0-1.33 0-2.48-0.22v-27.14c1.15-0.23 2.04-0.23 2.48-0.23 0.44 0 1.27 0 2.48 0.23z"/>
					<path id="&lt;Compound Path&gt;" class="s1" d="m564.83 850.57c-1.16 0.22-2.04 0.22-2.54 0.22-0.38 0-1.21 0-2.43-0.22v-27.32h18.65c0.34 1.22 0.34 1.94 0.34 2.38 0 0.66 0 1.6-0.17 2.26h-13.85v7.56h12.03c0.27 0.94 0.27 1.32 0.27 1.82 0 0.55 0 1.32-0.27 2.37h-12.03z"/>
					<path id="&lt;Compound Path&gt;" class="s1" d="m583.8 823.97c1.32-0.72 2.87-0.72 3.37-0.72 0.27 0 1.76 0 2.53 0.33l6.79 10.49 6.79-10.49c0.77-0.33 2.26-0.33 2.54-0.33 0.49 0 2.04 0 3.36 0.72l-10.2 15.06v11.54c-1.22 0.27-2.1 0.27-2.49 0.27-0.49 0-1.32 0-2.48-0.27v-11.54z"/>
					<path id="&lt;Compound Path&gt;" class="s1" d="m633.17 850.62c-1.21 0.22-2.04 0.22-2.48 0.22-0.44 0-1.33 0-2.49-0.22v-27.14c1.16-0.23 2.05-0.23 2.49-0.23 0.44 0 1.27 0 2.48 0.23z"/>
					<path id="&lt;Compound Path&gt;" fill-rule="evenodd" class="s1" d="m641.99 850.84v-27.59h9.6c7.18 0 11.81 2.6 11.81 10.43v6.74c0 7.83-4.63 10.42-11.81 10.42zm4.97-22.95v18.76h4.69c4.08 0 6.79-2.32 6.79-5.9v-7.4c0-3.58-2.43-5.46-6.79-5.46z"/>
					<path id="&lt;Compound Path&gt;" class="s1" d="m676.63 839.15v7.5h13.74c0.28 0.94 0.28 1.33 0.28 1.82 0 0.55 0 1.33-0.28 2.37h-18.7v-27.59h18.7c0.28 1.22 0.28 1.94 0.28 2.38 0 0.66 0 1.6-0.17 2.26h-13.85v7.06h12.03c0.28 0.94 0.28 1.33 0.28 1.82 0 0.55 0 1.33-0.28 2.38z"/>
					<path id="&lt;Compound Path&gt;" fill-rule="evenodd" class="s1" d="m719.83 850.13c-0.83 0.44-1.99 0.71-2.82 0.71-0.55 0-1.32 0-2.32-0.33l-2.59-8.11h-8.11c-0.88 2.6-1.77 5.58-2.54 8.11-0.94 0.33-1.77 0.33-2.32 0.33-0.83 0-1.93-0.22-2.81-0.71l8.39-26.27c1.71-0.61 2.15-0.61 3.42-0.61 1.21 0 1.65 0 3.31 0.61zm-9.16-12.36l-2.54-8.22c-0.94 2.87-1.77 5.24-2.65 8.22z"/>
					<path id="&lt;Compound Path&gt;" class="s1" d="m735.76 846.93c2.59 0 5.24-0.28 5.24-4.36 0-3.86-15.94-2.59-15.94-11.65 0-5.9 4.19-7.94 10.81-7.94 2.54 0 6.73 0.38 9.33 1.38-0.11 1.82-0.22 2.65-1.27 4.36-1.71-0.67-5.41-1.11-7.95-1.11-4.08 0-5.96 0.28-5.96 3.31 0 4.36 15.95 3.09 15.95 11.65 0 7.94-5.3 8.55-10.27 8.55-2.92 0-8.66-0.44-10.92-2.65 0.05-1.54 0.5-2.65 1.93-3.92 3.26 1.88 7.29 2.38 9.05 2.38z"/>
				</g>
			</g>
		</g>
	</g>
</svg>