<svg version="1.2" xmlns="http://www.w3.org/2000/svg" viewBox="0 0 7951 5122" width="7951" height="5122">
	<defs>
		<clipPath clipPathUnits="userSpaceOnUse" id="cp1">
			<path d="m-28.35-57.65h7979.42v5237.66h-7979.42z"/>
		</clipPath>
		<linearGradient id="g1" x2="1" gradientUnits="userSpaceOnUse" gradientTransform="matrix(-7984.588,0,0,-5121.634,7953.65,5122)">
			<stop offset="0" stop-color="#22b8ba"/>
			<stop offset="1" stop-color="#14375e"/>
		</linearGradient>
		<linearGradient id="g2" x2="1" gradientUnits="userSpaceOnUse" gradientTransform="matrix(2122.932,0,0,2144.852,6044.805,3398.346)">
			<stop offset="0" stop-color="#13385e"/>
			<stop offset="1" stop-color="#22bcbd"/>
		</linearGradient>
		<linearGradient id="g3" x2="1" gradientUnits="userSpaceOnUse" gradientTransform="matrix(2041.994,0,0,1923.96,6093.403,3398.346)">
			<stop offset="0" stop-color="#13385e"/>
			<stop offset="1" stop-color="#22bcbd"/>
		</linearGradient>
		<linearGradient id="g4" x2="1" gradientUnits="userSpaceOnUse" gradientTransform="matrix(2122.932,0,0,2144.852,4378.661,1600.481)">
			<stop offset="0" stop-color="#13385e"/>
			<stop offset="1" stop-color="#22bcbd"/>
		</linearGradient>
		<linearGradient id="g5" x2="1" gradientUnits="userSpaceOnUse" gradientTransform="matrix(2041.994,0,0,1923.96,4427.259,1600.481)">
			<stop offset="0" stop-color="#13385e"/>
			<stop offset="1" stop-color="#22bcbd"/>
		</linearGradient>
		<linearGradient id="g6" x2="1" gradientUnits="userSpaceOnUse" gradientTransform="matrix(2122.932,0,0,2144.852,-660.467,-1095.459)">
			<stop offset="0" stop-color="#13385e"/>
			<stop offset="1" stop-color="#22bcbd"/>
		</linearGradient>
		<linearGradient id="g7" x2="1" gradientUnits="userSpaceOnUse" gradientTransform="matrix(2041.994,0,0,1923.96,-611.87,-1095.459)">
			<stop offset="0" stop-color="#13385e"/>
			<stop offset="1" stop-color="#22bcbd"/>
		</linearGradient>
		<linearGradient id="g8" x2="1" gradientUnits="userSpaceOnUse" gradientTransform="matrix(2122.932,0,0,2144.852,3081.508,-792.835)">
			<stop offset="0" stop-color="#13385e"/>
			<stop offset="1" stop-color="#22bcbd"/>
		</linearGradient>
		<linearGradient id="g9" x2="1" gradientUnits="userSpaceOnUse" gradientTransform="matrix(2041.994,0,0,1923.96,3130.106,-792.835)">
			<stop offset="0" stop-color="#13385e"/>
			<stop offset="1" stop-color="#22bcbd"/>
		</linearGradient>
		<linearGradient id="g10" x2="1" gradientUnits="userSpaceOnUse" gradientTransform="matrix(3340.007,0,0,3374.495,-910.781,3013.838)">
			<stop offset="0" stop-color="#13385e"/>
			<stop offset="1" stop-color="#22bcbd"/>
		</linearGradient>
		<linearGradient id="g11" x2="1" gradientUnits="userSpaceOnUse" gradientTransform="matrix(3212.667,0,0,3026.964,-861.102,3364.649)">
			<stop offset="0" stop-color="#13385e"/>
			<stop offset="1" stop-color="#22bcbd"/>
		</linearGradient>
		<linearGradient id="g12" x2="1" gradientUnits="userSpaceOnUse" gradientTransform="matrix(1723.474,0,0,1741.27,773.48,1283.559)">
			<stop offset="0" stop-color="#13385e"/>
			<stop offset="1" stop-color="#22bcbd"/>
		</linearGradient>
		<linearGradient id="g13" x2="1" gradientUnits="userSpaceOnUse" gradientTransform="matrix(1657.766,0,0,1561.941,799.115,1464.58)">
			<stop offset="0" stop-color="#13385e"/>
			<stop offset="1" stop-color="#22bcbd"/>
		</linearGradient>
		<linearGradient id="g14" x2="1" gradientUnits="userSpaceOnUse" gradientTransform="matrix(2255.95,0,0,2279.244,3087.468,3799.09)">
			<stop offset="0" stop-color="#13385e"/>
			<stop offset="1" stop-color="#22bcbd"/>
		</linearGradient>
		<linearGradient id="g15" x2="1" gradientUnits="userSpaceOnUse" gradientTransform="matrix(2169.94,0,0,2044.51,3139.11,3799.09)">
			<stop offset="0" stop-color="#13385e"/>
			<stop offset="1" stop-color="#22bcbd"/>
		</linearGradient>
		<linearGradient id="g16" x2="1" gradientUnits="userSpaceOnUse" gradientTransform="matrix(2122.932,0,0,2144.852,6206.576,-313.443)">
			<stop offset="0" stop-color="#13385e"/>
			<stop offset="1" stop-color="#22bcbd"/>
		</linearGradient>
		<linearGradient id="g17" x2="1" gradientUnits="userSpaceOnUse" gradientTransform="matrix(2041.994,0,0,1923.96,6255.174,-313.443)">
			<stop offset="0" stop-color="#13385e"/>
			<stop offset="1" stop-color="#22bcbd"/>
		</linearGradient>
	</defs>
	<style>
		.s0 { fill: url(#g1);stroke: #231f20;stroke-miterlimit:10 } 
		.s1 { fill: url(#g2) } 
		.s2 { fill: url(#g3) } 
		.s3 { fill: url(#g4) } 
		.s4 { fill: url(#g5) } 
		.s5 { fill: url(#g6) } 
		.s6 { fill: url(#g7) } 
		.s7 { fill: url(#g8) } 
		.s8 { fill: url(#g9) } 
		.s9 { fill: url(#g10) } 
		.s10 { fill: url(#g11) } 
		.s11 { fill: url(#g12) } 
		.s12 { fill: url(#g13) } 
		.s13 { fill: url(#g14) } 
		.s14 { fill: url(#g15) } 
		.s15 { fill: url(#g16) } 
		.s16 { fill: url(#g17) } 
	</style>
	<g id="Layer 1">
		<g id="&lt;Clip Group&gt;" clip-path="url(#cp1)">
			<path id="&lt;Path&gt;" class="s0" d="m-30.94 0.37h7984.59v5121.63h-7984.59z"/>
			<g id="&lt;Group&gt;">
				<g id="&lt;title&gt; 1 ">
				</g>
				<g id="&lt;desc&gt; 1 ">
				</g>
				<g id="Page-1 1 ">
					<g id="Group-Copy-9 1 ">
						<path id="Fill-4 1 " fill-rule="evenodd" class="s1" d="m8138.36 4314.06c-62.2 147.41-120 303.23-170.42 470.3 7.87 3.45 13.37 11.35 13.37 20.56 0 12.38-9.96 22.42-22.24 22.42q-1.97-0.01-3.84-0.35c-26.61 90-51.05 183.22-72.83 280.08 9.17 2.76 15.85 11.33 15.85 21.47 0 12.38-9.96 22.42-22.25 22.42-6.81 0-12.9-3.09-16.98-7.95-213.09 152.76-395.02 279.88-589.1 389.21 1.14 2.7 1.79 5.68 1.79 8.8 0 12.38-9.97 22.42-22.26 22.42-12.29 0-22.27-10.04-22.27-22.42 0-3.71 0.91-7.2 2.5-10.28-254.71-159.81-537.47-289.69-857.72-375.98-2.99 8.83-11.27 15.2-21.06 15.2-12.29 0-22.25-10.04-22.25-22.43 0-7.73 3.88-14.54 9.77-18.57-118.42-221.73-211.03-415.33-286.11-629.76-1.7 0.43-3.47 0.67-5.28 0.67-12.31 0-22.26-10.03-22.26-22.42 0-12.38 9.95-22.43 22.26-22.43 2.36 0 4.66 0.39 6.79 1.08 196.48-304.38 353.98-640.36 461.58-1015.15-7.46-3.6-12.63-11.29-12.63-20.2 0-12.37 9.98-22.4 22.26-22.4 11.92 0 21.62 9.44 22.21 21.31 376.06 18.63 742.53 94.42 1248.47 113.13 1.18-11.3 10.64-20.07 22.14-20.07 12.29 0 22.25 10.03 22.25 22.41 0 7.41-3.57 13.94-9.04 18.01 129.58 259 228.8 476.94 309.33 717.87 1.63-0.38 3.33-0.61 5.09-0.61 12.29 0 22.26 10.05 22.26 22.43 0 12.38-9.97 22.42-22.26 22.42-2.49 0-4.88-0.44-7.12-1.19zm-499.07 813.38c93.63-98.43 193.72-200.42 304.98-305.8-2.95-2.65-5.21-6.06-6.43-9.96-502.57 64.81-913.6 25.21-1498.78 68.42q0.07 0.82 0.08 1.66c0 4.06-1.08 7.86-2.95 11.14 275.62 159.75 544.67 361.6 798.01 631.81 3.98-3.78 9.34-6.11 15.25-6.11 6.05 0 11.53 2.44 15.55 6.38 121.03-124.99 241.18-257.65 374.29-397.54zm-1116.43-1684.36c-5.09 520.16-61.2 907.09-94.61 1276-4.26 46.96-8.12 93.64-11.48 140.26 0.05 0 0.07-0.01 0.12-0.01 5.31 0 10.16 1.88 13.98 5 308.01-291.78 549.39-595.05 791.88-893.19-4.97-4.1-8.14-10.34-8.14-17.35 0-4.31 1.24-8.33 3.34-11.76-235.54-146.42-462.13-313.24-677.5-505.11-4 3.87-9.42 6.26-15.42 6.26q-1.08 0-2.17-0.1zm1421.48 1345.05c-218.13-294.38-454.24-533.14-692.92-817.39-3.91 3.41-8.98 5.48-14.56 5.48-4.76 0-9.17-1.52-12.78-4.07-181.73 223.28-362.72 449.49-571.5 671.58-69.99 74.45-143.16 148.44-220.47 221.7 3.6 3.42 6.07 8.02 6.8 13.2 227.52-16.87 428.82-21.23 619.34-24.05 299.21-4.41 572.08-5.1 879.13-44.7q-0.56-2.4-0.57-4.96c0-6.7 2.92-12.68 7.53-16.79zm13.55-5.58c-18.29-351.42-32.8-632.22-76.71-922.38-14.98-99.05-33.46-199.23-56.61-303.66-2.13 0.69-4.39 1.05-6.72 1.05-7.35 0-13.86-3.61-17.91-9.15-202.3 127.05-376.35 258.04-544.79 392.61 2.49 3.63 3.97 8.04 3.97 12.77 0 6.21-2.49 11.81-6.52 15.86 169.99 202.41 338.66 381.72 500.47 574.35 65.49 77.96 129.83 158.2 192.69 242.96 3.42-2.57 7.59-4.17 12.13-4.41zm-162.31-1247.42q0.02-0.38 0.04-0.77c-505.75-18.52-872.22-94.11-1248.38-112.56-0.24 5.28-2.28 10.09-5.55 13.8 94.32 84.1 190.77 163.44 289.2 238.31 126.21 95.95 255.65 184.61 387.91 266.82 4.05-5.65 10.62-9.35 18.06-9.35 6.99 0 13.21 3.24 17.28 8.31 168.47-134.66 342.52-265.68 544.8-392.73-2.11-3.45-3.36-7.47-3.36-11.83zm-1740.18 921.55c8.13 3.34 13.87 11.38 13.87 20.77 0 6.01-2.36 11.47-6.19 15.5 105.72 122.95 218.8 242.45 338.23 372.81 3.55-3.51 8.26-5.83 13.5-6.31 20.1-276.72 58.5-555.43 83.41-885.87 12.26-162.42 21.22-337.39 23.16-530.72q-2.37-0.4-4.54-1.26c-107.59 374.72-265.05 710.7-461.44 1015.08zm284.71 671.25c3.2-1.79 6.88-2.83 10.79-2.83q1.5 0.01 2.94 0.22c16.88-74.41 35.09-148.56 54.06-223.05-7.81-3.5-13.26-11.34-13.26-20.51 0-5.61 2.05-10.72 5.43-14.66-94.44-103-184.93-199.2-270.93-295.63-22.85-25.63-45.36-51.28-67.57-77.07-2.1 1.83-4.55 3.27-7.23 4.21 75.03 214.27 167.55 407.77 285.77 629.32zm890.39 401.35q1.17-1.88 2.64-3.49-34.13-36.41-68.64-71.2c-233.02-234.84-478.38-414.98-729.17-560.26-4 5.95-10.77 9.85-18.44 9.85-2.53 0-4.95-0.44-7.21-1.22-18.89 74.37-37.03 148.41-53.84 222.71 9.91 2.26 17.33 11.18 17.33 21.86 0 1.98-0.29 3.9-0.77 5.75 320.4 86.27 603.28 216.19 858.1 376zm723.16-702.64c-2.99-0.74-5.74-2.11-8.11-3.94-269.47 255.36-473.12 490.76-679.16 703.81q1.48 1.74 2.58 3.75c194.06-109.23 375.96-236.2 588.9-388.74-2.59-3.67-4.12-8.14-4.12-12.98 0-12.39 9.95-22.43 22.25-22.43 1.69 0 3.33 0.21 4.91 0.56 21.76-96.83 46.16-190.05 72.75-280.03zm183.09-513.18c-7.95-3.42-13.53-11.37-13.53-20.63 0-9.9 6.38-18.29 15.21-21.27-80.47-240.75-179.58-458.59-308.92-717.35-0.99 0.61-2 1.16-3.08 1.62 91.1 410.54 108.75 754.87 133.15 1226.69 2.41 0.05 4.71 0.5 6.86 1.26 50.4-167.05 108.15-322.91 170.31-470.32z"/>
						<path id="Fill-8 1 " fill-rule="evenodd" class="s2" d="m8111.2 4675.55l-495.65 567.34c1.76 2.45 2.82 5.44 2.82 8.69 0 8.24-6.62 14.91-14.79 14.91-6.68 0-12.26-4.5-14.09-10.63l-892.77 71.24c-0.78 7.5-6.98 13.37-14.63 13.37-8.16 0-14.78-6.68-14.78-14.91 0-3.86 1.49-7.36 3.9-10.01l-576.32-1087.85c-1.83 0.83-3.84 1.3-5.98 1.3-8.16 0-14.78-6.67-14.78-14.89 0-8.26 6.62-14.93 14.78-14.93 3.82 0 7.27 1.52 9.9 3.92l538.58-599.26c-4.67-5.28-7.53-12.2-7.53-19.84 0-16.46 13.23-29.81 29.57-29.81 12.88 0 23.82 8.33 27.87 19.95l378.56-90.31c-0.28-2.16-0.48-4.37-0.48-6.62 0-28.17 22.64-50.98 50.57-50.98 22.21 0 41.03 14.44 47.82 34.52l191.92-44.64q-0.28-1.39-0.29-2.86c0-8.23 6.61-14.9 14.79-14.9 8.16 0 14.78 6.67 14.78 14.9 0 3.11-0.95 5.98-2.56 8.37l617.23 422.84c2.64-2.46 6.14-4 10.01-4 8.18 0 14.8 6.67 14.8 14.9 0 6.32-3.91 11.7-9.41 13.86l109.14 780.52c6.44 1.62 11.22 7.43 11.22 14.42 0 8.24-6.62 14.91-14.78 14.91-3.61 0-6.87-1.35-9.42-3.52zm-497.76 565l495.58-567.26c-1.59-2.04-2.64-4.5-2.99-7.2l-200.37 64.67c0.77 3.54 1.21 7.19 1.21 10.96 0 28.16-22.66 50.99-50.58 50.99-6.27 0-12.26-1.21-17.81-3.32l-225.64 450.66q0.3 0.25 0.6 0.5zm-918.92 76.98l1117.22-551.69c-3.83-7.18-6.01-15.4-6.01-24.12 0-2.65 0.26-5.22 0.64-7.76l-1046.13-229.9c-4.95 22.48-24.59 39.34-48.26 39.84l-30.76 766.85c0.3-0.02 0.58-0.1 0.87-0.1 5.24 0 9.8 2.75 12.43 6.88zm-590.82-1103.42c0 1.76-0.36 3.45-0.93 5.04l563.24 250.43c8.42-16.38 25.34-27.6 44.9-27.6 6.46 0 12.6 1.27 18.27 3.49l364.25-922.66c-8-4.02-14.81-10.1-19.71-17.56l-971.27 702.89c0.79 1.83 1.25 3.84 1.25 5.97zm1891.18-358.75c0-2.04 0.41-4 1.14-5.76l-833.14-353.49c-3.92 9.89-10.8 18.23-19.56 23.92l689.98 1176.33c6.9-3.57 14.7-5.63 22.99-5.63q5.4 0.02 10.49 1.12l140.37-821.82c-6.97-1.2-12.27-7.29-12.27-14.67zm-898.64-331.2l-364.18 922.54c17.34 8.07 29.42 25.73 29.42 46.27 0 2.73-0.27 5.39-0.68 8l1046.1 229.9c3.03-14.04 11.79-25.89 23.67-32.99l-689.9-1176.22c-7.32 4.15-15.73 6.54-24.72 6.54-6.99 0-13.65-1.44-19.71-4.04zm915.78 345.89q-0.86 0.12-1.74 0.18l-140.47 822.4c16.91 4.73 30.25 18.07 35.08 35.08l201.08-64.9c0.69-7.59 6.93-13.56 14.65-13.56 0.12 0 0.23 0.04 0.35 0.04zm-847.34-406.29c1.16 4.3 1.84 8.78 1.84 13.45 0 5.58-0.92 10.93-2.56 15.95l49.38 20.96 784.22 332.72q0.01 0 0.01 0l-617.21-422.82c-2.65 2.56-6.22 4.13-10.17 4.13-6.1 0-11.33-3.72-13.59-9.03zm-1063.69 741.56l971.11-702.77c-2.71-4.77-4.71-10.02-5.78-15.62l-378.15 90.21c0.51 2.21 0.81 4.49 0.81 6.85 0 16.46-13.23 29.83-29.56 29.83-7.65 0-14.58-2.95-19.83-7.76zm-3.42 20.8l576.02 1087.26c1.34-0.94 2.86-1.64 4.48-2.11l30.79-767.42c-26.97-1.09-48.52-23.43-48.52-50.88 0-7.33 1.56-14.28 4.3-20.58l-563.23-250.42c-1.01 1.61-2.31 3.03-3.84 4.15zm1491.34 1026.62c-0.03-0.39-0.11-0.76-0.11-1.17 0-8.22 6.61-14.9 14.77-14.9 2.4 0 4.63 0.63 6.64 1.66l225.36-450.14c-9.23-4.18-16.94-11.06-22.23-19.66l-1117.46 551.81q0.64 1.72 0.82 3.61z"/>
					</g>
				</g>
			</g>
			<g id="&lt;Group&gt;">
				<g id="&lt;title&gt; 8 ">
				</g>
				<g id="&lt;desc&gt; 8 ">
				</g>
				<g id="Page-1 8 ">
					<g id="Group-Copy-9 8 ">
						<path id="Fill-4 8 " fill-rule="evenodd" class="s3" d="m6472.22 2516.19c-62.2 147.41-120.01 303.24-170.43 470.3 7.87 3.45 13.38 11.35 13.38 20.57 0 12.38-9.96 22.42-22.24 22.42q-1.97-0.01-3.85-0.36c-26.61 90-51.04 183.22-72.82 280.08 9.17 2.77 15.85 11.33 15.85 21.47 0 12.38-9.97 22.42-22.25 22.42-6.81 0-12.9-3.08-16.99-7.95-213.08 152.77-395.01 279.89-589.1 389.21 1.14 2.71 1.79 5.68 1.79 8.81 0 12.38-9.96 22.42-22.26 22.42-12.29 0-22.26-10.04-22.26-22.42 0-3.71 0.91-7.2 2.49-10.28-254.7-159.81-537.46-289.7-857.71-375.98-2.99 8.82-11.28 15.19-21.06 15.19-12.29 0-22.25-10.04-22.25-22.43 0-7.73 3.87-14.54 9.77-18.56-118.42-221.73-211.04-415.34-286.12-629.76-1.69 0.42-3.46 0.66-5.28 0.66-12.3 0-22.26-10.03-22.26-22.42 0-12.38 9.96-22.42 22.26-22.42 2.37 0 4.66 0.39 6.79 1.07 196.48-304.37 353.98-640.36 461.59-1015.14-7.46-3.6-12.63-11.29-12.63-20.2 0-12.37 9.98-22.41 22.25-22.41 11.93 0 21.62 9.45 22.22 21.31 376.06 18.64 742.53 94.43 1248.47 113.14 1.17-11.3 10.64-20.07 22.13-20.07 12.3 0 22.25 10.03 22.25 22.41 0 7.4-3.56 13.93-9.04 18.01 129.59 259 228.81 476.94 309.33 717.87 1.64-0.38 3.34-0.62 5.1-0.62 12.29 0 22.25 10.05 22.25 22.43 0 12.38-9.96 22.42-22.25 22.42-2.49 0-4.89-0.43-7.12-1.19zm-499.08 813.38c93.64-98.42 193.72-200.42 304.99-305.8-2.96-2.65-5.21-6.06-6.43-9.95-502.58 64.8-913.61 25.21-1498.78 68.41q0.07 0.82 0.08 1.67c0 4.06-1.08 7.86-2.96 11.14 275.63 159.75 544.68 361.59 798.02 631.81 3.98-3.79 9.33-6.12 15.24-6.12 6.06 0 11.54 2.44 15.55 6.39 121.03-124.99 241.19-257.65 374.29-397.55zm-1116.42-1684.35c-5.1 520.15-61.2 907.08-94.62 1275.99-4.25 46.97-8.11 93.65-11.47 140.27 0.05 0 0.07-0.01 0.12-0.01 5.3 0 10.16 1.88 13.98 4.99 308.01-291.77 549.39-595.05 791.87-893.19-4.96-4.09-8.13-10.34-8.13-17.34 0-4.32 1.23-8.33 3.34-11.77-235.55-146.42-462.13-313.23-677.5-505.11-4 3.88-9.43 6.27-15.43 6.27q-1.08-0.01-2.16-0.1zm1421.48 1345.05c-218.13-294.38-454.25-533.14-692.93-817.39-3.9 3.41-8.98 5.48-14.56 5.48-4.75 0-9.16-1.52-12.78-4.08-181.72 223.29-362.72 449.5-571.49 671.58-69.99 74.45-143.16 148.44-220.47 221.7 3.59 3.42 6.07 8.03 6.8 13.2 227.52-16.87 428.81-21.23 619.33-24.04 299.22-4.41 572.09-5.11 879.14-44.7q-0.57-2.41-0.57-4.96c0-6.7 2.92-12.69 7.53-16.79zm13.55-5.58c-18.29-351.43-32.8-632.22-76.72-922.38-14.98-99.05-33.45-199.23-56.61-303.66-2.12 0.68-4.38 1.05-6.72 1.05-7.35 0-13.86-3.62-17.9-9.15-202.3 127.04-376.35 258.04-544.79 392.61 2.48 3.63 3.97 8.04 3.97 12.77 0 6.2-2.5 11.8-6.52 15.86 169.98 202.41 338.66 381.71 500.47 574.35 65.48 77.96 129.83 158.19 192.69 242.96 3.41-2.58 7.59-4.17 12.13-4.41zm-162.31-1247.42q0.01-0.39 0.04-0.77c-505.75-18.52-872.22-94.12-1248.38-112.56-0.24 5.28-2.29 10.09-5.55 13.79 94.32 84.11 190.77 163.45 289.2 238.31 126.2 95.95 255.64 184.61 387.91 266.82 4.04-5.65 10.61-9.34 18.05-9.34 6.99 0 13.21 3.24 17.29 8.3 168.46-134.65 342.52-265.68 544.79-392.73-2.11-3.45-3.35-7.46-3.35-11.82zm-1740.18 921.55c8.13 3.34 13.87 11.37 13.87 20.76 0 6.02-2.37 11.48-6.19 15.5 105.71 122.96 218.8 242.46 338.22 372.82 3.56-3.51 8.26-5.83 13.5-6.32 20.1-276.72 58.51-555.43 83.41-885.86 12.26-162.43 21.23-337.39 23.17-530.72q-2.37-0.41-4.55-1.26c-107.59 374.72-265.05 710.69-461.43 1015.08zm284.7 671.25c3.21-1.8 6.88-2.84 10.8-2.84q1.5 0.02 2.93 0.22c16.89-74.41 35.09-148.56 54.06-223.05-7.8-3.49-13.26-11.34-13.26-20.5 0-5.61 2.06-10.73 5.44-14.66-94.45-103.01-184.93-199.2-270.94-295.64-22.85-25.63-45.35-51.28-67.56-77.06-2.11 1.82-4.55 3.26-7.23 4.2 75.03 214.28 167.55 407.78 285.76 629.33zm890.39 401.35q1.18-1.89 2.65-3.5-34.13-36.41-68.64-71.2c-233.02-234.84-478.38-414.98-729.18-560.26-3.99 5.95-10.76 9.86-18.43 9.86-2.54 0-4.95-0.45-7.22-1.22-18.88 74.37-37.02 148.41-53.83 222.71 9.91 2.26 17.32 11.18 17.32 21.85 0 1.99-0.28 3.91-0.76 5.75 320.4 86.28 603.27 216.2 858.09 376.01zm723.17-702.64c-2.99-0.75-5.75-2.11-8.11-3.95-269.48 255.36-473.12 490.77-679.16 703.81q1.48 1.74 2.58 3.75c194.05-109.23 375.96-236.2 588.9-388.73-2.59-3.67-4.13-8.14-4.13-12.99 0-12.39 9.96-22.43 22.26-22.43 1.69 0 3.32 0.22 4.9 0.57 21.77-96.83 46.16-190.05 72.76-280.03zm183.09-513.18c-7.95-3.42-13.53-11.37-13.53-20.64 0-9.89 6.38-18.29 15.21-21.27-80.48-240.75-179.58-458.58-308.92-717.34-0.99 0.6-2 1.16-3.09 1.61 91.11 410.54 108.75 754.87 133.16 1226.7 2.4 0.05 4.71 0.49 6.86 1.26 50.39-167.06 108.15-322.91 170.31-470.32z"/>
						<path id="Fill-8 8 " fill-rule="evenodd" class="s4" d="m6445.05 2877.69l-495.65 567.34c1.76 2.45 2.82 5.43 2.82 8.69 0 8.23-6.62 14.91-14.78 14.91-6.68 0-12.26-4.5-14.1-10.64l-892.76 71.25c-0.78 7.5-6.99 13.36-14.64 13.36-8.15 0-14.77-6.67-14.77-14.91 0-3.86 1.49-7.35 3.9-10.01l-576.32-1087.84c-1.83 0.83-3.84 1.3-5.98 1.3-8.17 0-14.79-6.67-14.79-14.9 0-8.25 6.62-14.93 14.79-14.93 3.82 0 7.27 1.53 9.9 3.92l538.58-599.25c-4.68-5.28-7.54-12.21-7.54-19.85 0-16.46 13.24-29.8 29.57-29.8 12.89 0 23.82 8.32 27.87 19.94l378.56-90.3c-0.28-2.17-0.48-4.38-0.48-6.62 0-28.18 22.64-50.99 50.57-50.99 22.22 0 41.04 14.45 47.83 34.53l191.91-44.65q-0.28-1.39-0.29-2.85c0-8.24 6.62-14.91 14.8-14.91 8.15 0 14.77 6.67 14.77 14.91 0 3.1-0.95 5.98-2.56 8.37l617.24 422.83c2.64-2.46 6.14-4 10.01-4 8.17 0 14.79 6.68 14.79 14.91 0 6.32-3.91 11.69-9.41 13.86l109.15 780.51c6.43 1.62 11.21 7.44 11.21 14.43 0 8.23-6.61 14.9-14.77 14.9-3.61 0-6.87-1.35-9.43-3.51zm-497.76 565l495.58-567.26c-1.59-2.05-2.64-4.51-2.99-7.21l-200.37 64.67c0.77 3.54 1.21 7.2 1.21 10.97 0 28.15-22.65 50.98-50.57 50.98-6.28 0-12.27-1.21-17.81-3.31l-225.65 450.66q0.31 0.24 0.6 0.5zm-918.91 76.98l1117.21-551.7c-3.82-7.18-6-15.39-6-24.11 0-2.65 0.26-5.22 0.64-7.76l-1046.13-229.9c-4.95 22.48-24.59 39.34-48.27 39.83l-30.76 766.86c0.3-0.02 0.58-0.1 0.87-0.1 5.24 0 9.81 2.75 12.44 6.88zm-590.83-1103.43c0 1.77-0.36 3.46-0.93 5.04l563.25 250.43c8.42-16.37 25.34-27.59 44.89-27.59 6.46 0 12.61 1.27 18.28 3.48l364.24-922.65c-7.99-4.03-14.8-10.1-19.7-17.56l-971.28 702.88c0.79 1.84 1.25 3.84 1.25 5.97zm1891.18-358.74c0-2.05 0.41-4 1.15-5.77l-833.14-353.48c-3.92 9.88-10.81 18.23-19.56 23.91l689.98 1176.33c6.89-3.57 14.69-5.62 22.99-5.62q5.4 0.01 10.49 1.12l140.37-821.82c-6.97-1.2-12.28-7.29-12.28-14.67zm-898.64-331.2l-364.17 922.53c17.34 8.08 29.42 25.74 29.42 46.28 0 2.72-0.27 5.38-0.68 7.99l1046.1 229.9c3.03-14.04 11.78-25.88 23.67-32.99l-689.9-1176.21c-7.32 4.14-15.74 6.54-24.73 6.54-6.98 0-13.64-1.44-19.71-4.04zm915.79 345.89q-0.87 0.12-1.74 0.18l-140.48 822.39c16.92 4.74 30.25 18.07 35.08 35.09l201.08-64.9c0.69-7.6 6.94-13.56 14.66-13.56 0.12 0 0.23 0.04 0.35 0.04zm-847.34-406.29c1.16 4.29 1.84 8.78 1.84 13.45 0 5.57-0.92 10.92-2.56 15.94l49.37 20.97 784.22 332.71q0.02 0 0.01 0l-617.2-422.81c-2.65 2.56-6.22 4.13-10.17 4.13-6.11 0-11.34-3.72-13.6-9.03zm-1063.68 741.56l971.11-702.78c-2.71-4.76-4.71-10.02-5.78-15.61l-378.15 90.2c0.51 2.21 0.81 4.5 0.81 6.86 0 16.46-13.24 29.83-29.56 29.83-7.65 0-14.59-2.96-19.83-7.77zm-3.42 20.81l576.02 1087.26c1.34-0.95 2.86-1.64 4.48-2.12l30.79-767.42c-26.98-1.08-48.53-23.42-48.53-50.88 0-7.33 1.56-14.27 4.31-20.57l-563.24-250.42c-1 1.61-2.3 3.03-3.83 4.15zm1491.33 1026.62c-0.03-0.39-0.11-0.77-0.11-1.17 0-8.23 6.62-14.91 14.78-14.91 2.4 0 4.63 0.64 6.63 1.66l225.37-450.13c-9.23-4.18-16.95-11.07-22.24-19.67l-1117.45 551.81q0.63 1.73 0.82 3.61z"/>
					</g>
				</g>
			</g>
			<g id="&lt;Group&gt;">
				<g id="&lt;title&gt; 2 ">
				</g>
				<g id="&lt;desc&gt; 2 ">
				</g>
				<g id="Page-1 2 ">
					<g id="Group-Copy-9 2 ">
						<path id="Fill-4 2 " fill-rule="evenodd" class="s5" d="m1433.09-179.75c-62.2 147.41-120 303.24-170.43 470.3 7.87 3.45 13.38 11.35 13.38 20.57 0 12.38-9.96 22.42-22.24 22.42q-1.97-0.01-3.85-0.36c-26.6 90-51.04 183.22-72.82 280.08 9.17 2.77 15.85 11.33 15.85 21.47 0 12.38-9.96 22.42-22.25 22.42-6.81 0-12.9-3.09-16.99-7.95-213.08 152.77-395.01 279.89-589.1 389.21 1.14 2.71 1.8 5.68 1.8 8.81 0 12.38-9.97 22.42-22.27 22.42-12.29 0-22.26-10.04-22.26-22.42 0-3.71 0.91-7.2 2.49-10.28-254.7-159.81-537.46-289.7-857.71-375.98-2.99 8.82-11.28 15.19-21.06 15.19-12.29 0-22.25-10.04-22.25-22.43 0-7.73 3.87-14.54 9.77-18.56-118.42-221.73-211.04-415.34-286.12-629.76-1.69 0.42-3.46 0.66-5.27 0.66-12.31 0-22.27-10.03-22.27-22.42 0-12.38 9.96-22.42 22.27-22.42 2.36 0 4.65 0.39 6.79 1.07 196.47-304.37 353.97-640.36 461.58-1015.14-7.46-3.6-12.63-11.29-12.63-20.2 0-12.37 9.98-22.41 22.25-22.41 11.93 0 21.63 9.45 22.22 21.31 376.06 18.64 742.53 94.43 1248.47 113.14 1.17-11.3 10.64-20.07 22.13-20.07 12.3 0 22.26 10.03 22.26 22.41 0 7.4-3.57 13.93-9.05 18.01 129.59 259 228.81 476.94 309.33 717.87 1.64-0.38 3.34-0.62 5.1-0.62 12.29 0 22.25 10.05 22.25 22.43 0 12.38-9.96 22.42-22.25 22.42-2.49 0-4.89-0.43-7.12-1.19zm-499.08 813.38c93.64-98.42 193.73-200.42 304.99-305.8-2.96-2.65-5.21-6.06-6.43-9.95-502.58 64.8-913.61 25.21-1498.78 68.41q0.07 0.82 0.08 1.67c0 4.06-1.08 7.86-2.96 11.14 275.63 159.75 544.68 361.59 798.02 631.81 3.98-3.79 9.33-6.12 15.24-6.12 6.06 0 11.54 2.44 15.56 6.39 121.02-124.99 241.18-257.65 374.28-397.55zm-1116.42-1684.35c-5.1 520.15-61.2 907.08-94.62 1275.99-4.25 46.97-8.11 93.65-11.47 140.27 0.05 0 0.07-0.01 0.12-0.01 5.3 0 10.16 1.88 13.98 4.99 308.01-291.77 549.39-595.05 791.87-893.19-4.96-4.09-8.13-10.34-8.13-17.34 0-4.32 1.23-8.33 3.34-11.77-235.55-146.42-462.13-313.23-677.5-505.11-4 3.88-9.43 6.27-15.43 6.27q-1.08-0.01-2.16-0.1zm1421.48 1345.05c-218.13-294.38-454.25-533.14-692.92-817.39-3.91 3.41-8.99 5.48-14.57 5.48-4.75 0-9.16-1.52-12.77-4.08-181.73 223.29-362.72 449.5-571.5 671.58-69.99 74.45-143.16 148.44-220.47 221.7 3.59 3.42 6.07 8.03 6.8 13.2 227.52-16.87 428.82-21.23 619.33-24.04 299.22-4.41 572.09-5.11 879.14-44.7q-0.57-2.41-0.57-4.96c0-6.7 2.92-12.69 7.53-16.79zm13.55-5.58c-18.29-351.43-32.8-632.22-76.71-922.38-14.99-99.05-33.46-199.23-56.62-303.66-2.12 0.68-4.38 1.05-6.72 1.05-7.35 0-13.86-3.62-17.9-9.15-202.3 127.04-376.35 258.04-544.79 392.61 2.48 3.63 3.97 8.04 3.97 12.77 0 6.2-2.5 11.8-6.52 15.86 169.99 202.41 338.66 381.71 500.47 574.35 65.48 77.96 129.83 158.19 192.69 242.96 3.42-2.58 7.59-4.17 12.13-4.41zm-162.31-1247.42q0.01-0.39 0.04-0.77c-505.75-18.52-872.22-94.12-1248.38-112.56-0.24 5.28-2.29 10.09-5.55 13.79 94.32 84.11 190.77 163.45 289.2 238.31 126.21 95.95 255.65 184.61 387.91 266.82 4.04-5.65 10.61-9.34 18.05-9.34 6.99 0 13.21 3.24 17.29 8.3 168.47-134.65 342.52-265.68 544.8-392.73-2.12-3.45-3.36-7.46-3.36-11.82zm-1740.18 921.55c8.13 3.34 13.87 11.37 13.87 20.76 0 6.02-2.36 11.48-6.19 15.5 105.71 122.96 218.8 242.46 338.22 372.82 3.56-3.51 8.27-5.83 13.5-6.32 20.1-276.72 58.51-555.43 83.42-885.86 12.25-162.43 21.22-337.39 23.16-530.72q-2.37-0.41-4.55-1.26c-107.58 374.72-265.04 710.69-461.43 1015.08zm284.7 671.25c3.21-1.8 6.88-2.84 10.8-2.84q1.5 0.02 2.93 0.22c16.89-74.41 35.1-148.56 54.06-223.05-7.8-3.49-13.26-11.34-13.26-20.5 0-5.61 2.06-10.73 5.44-14.66-94.45-103.01-184.93-199.2-270.93-295.64-22.86-25.63-45.36-51.28-67.57-77.06-2.11 1.82-4.55 3.26-7.23 4.2 75.03 214.28 167.55 407.78 285.76 629.33zm890.4 401.35q1.17-1.89 2.64-3.5-34.13-36.41-68.64-71.2c-233.02-234.84-478.38-414.98-729.18-560.26-3.99 5.95-10.76 9.86-18.43 9.86-2.54 0-4.95-0.45-7.21-1.22-18.89 74.37-37.03 148.41-53.84 222.71 9.91 2.26 17.32 11.18 17.32 21.85 0 1.99-0.28 3.91-0.76 5.75 320.4 86.28 603.27 216.2 858.1 376.01zm723.16-702.64c-2.99-0.75-5.75-2.11-8.11-3.95-269.47 255.36-473.12 490.77-679.16 703.81q1.48 1.74 2.58 3.75c194.06-109.23 375.96-236.2 588.9-388.73-2.59-3.67-4.12-8.14-4.12-12.99 0-12.39 9.95-22.43 22.25-22.43 1.69 0 3.32 0.22 4.91 0.57 21.76-96.83 46.15-190.05 72.75-280.03zm183.09-513.18c-7.95-3.42-13.53-11.37-13.53-20.64 0-9.89 6.38-18.29 15.21-21.27-80.48-240.75-179.58-458.58-308.92-717.34-0.99 0.6-2 1.16-3.08 1.61 91.1 410.54 108.74 754.87 133.15 1226.7 2.4 0.05 4.71 0.49 6.86 1.26 50.39-167.06 108.15-322.91 170.31-470.32z"/>
						<path id="Fill-8 2 " fill-rule="evenodd" class="s6" d="m1405.92 181.75l-495.65 567.34c1.76 2.45 2.82 5.43 2.82 8.69 0 8.23-6.62 14.91-14.78 14.91-6.68 0-12.26-4.5-14.1-10.64l-892.76 71.25c-0.78 7.5-6.99 13.36-14.63 13.36-8.16 0-14.78-6.67-14.78-14.91 0-3.86 1.49-7.35 3.9-10.01l-576.32-1087.84c-1.83 0.83-3.84 1.3-5.98 1.3-8.17 0-14.78-6.67-14.78-14.9 0-8.25 6.61-14.93 14.78-14.93 3.82 0 7.27 1.53 9.9 3.92l538.58-599.25c-4.68-5.28-7.54-12.21-7.54-19.85 0-16.46 13.24-29.8 29.57-29.8 12.89 0 23.83 8.32 27.87 19.94l378.56-90.3c-0.28-2.17-0.48-4.38-0.48-6.62 0-28.18 22.65-50.99 50.58-50.99 22.21 0 41.03 14.45 47.82 34.53l191.91-44.65q-0.28-1.39-0.29-2.85c0-8.24 6.62-14.91 14.8-14.91 8.16 0 14.77 6.67 14.77 14.91 0 3.1-0.95 5.98-2.56 8.37l617.24 422.83c2.64-2.46 6.14-4 10.01-4 8.17 0 14.79 6.68 14.79 14.91 0 6.32-3.91 11.69-9.4 13.86l109.14 780.51c6.44 1.62 11.21 7.44 11.21 14.43 0 8.23-6.61 14.9-14.77 14.9-3.61 0-6.87-1.35-9.43-3.51zm-497.76 565l495.58-567.26c-1.59-2.05-2.64-4.51-2.99-7.21l-200.37 64.67c0.77 3.54 1.21 7.2 1.21 10.97 0 28.15-22.65 50.98-50.57 50.98-6.28 0-12.27-1.21-17.81-3.31l-225.65 450.66q0.31 0.24 0.6 0.5zm-918.91 76.98l1117.22-551.7c-3.83-7.18-6.01-15.39-6.01-24.11 0-2.65 0.26-5.22 0.64-7.76l-1046.13-229.9c-4.95 22.48-24.59 39.34-48.26 39.83l-30.76 766.86c0.3-0.02 0.58-0.1 0.87-0.1 5.23 0 9.8 2.75 12.43 6.88zm-590.82-1103.43c0 1.77-0.36 3.46-0.93 5.04l563.24 250.43c8.42-16.38 25.34-27.59 44.9-27.59 6.45 0 12.6 1.27 18.27 3.48l364.24-922.65c-7.99-4.03-14.8-10.1-19.7-17.56l-971.27 702.88c0.79 1.84 1.25 3.84 1.25 5.97zm1891.17-358.74c0-2.05 0.41-4 1.15-5.77l-833.14-353.48c-3.92 9.88-10.81 18.23-19.56 23.91l689.98 1176.33c6.9-3.57 14.69-5.62 22.99-5.62q5.4 0.01 10.49 1.11l140.37-821.81c-6.97-1.2-12.28-7.29-12.28-14.67zm-898.64-331.2l-364.17 922.53c17.34 8.08 29.42 25.74 29.42 46.28 0 2.72-0.27 5.38-0.68 7.99l1046.1 229.9c3.03-14.04 11.78-25.88 23.67-32.99l-689.9-1176.21c-7.32 4.14-15.74 6.54-24.72 6.54-6.99 0-13.65-1.44-19.72-4.04zm915.79 345.89q-0.87 0.12-1.74 0.18l-140.47 822.39c16.91 4.74 30.25 18.07 35.07 35.09l201.08-64.91c0.69-7.59 6.94-13.55 14.66-13.55 0.12 0 0.23 0.04 0.35 0.04zm-847.34-406.29c1.16 4.29 1.84 8.78 1.84 13.45 0 5.57-0.92 10.92-2.56 15.94l49.37 20.97 784.22 332.71q0.02 0 0.01 0l-617.2-422.81c-2.65 2.56-6.22 4.13-10.17 4.13-6.11 0-11.34-3.72-13.59-9.03zm-1063.69 741.56l971.11-702.78c-2.71-4.76-4.71-10.02-5.78-15.61l-378.15 90.2c0.51 2.21 0.81 4.5 0.81 6.86 0 16.46-13.24 29.83-29.56 29.83-7.65 0-14.59-2.96-19.83-7.77zm-3.42 20.81l576.02 1087.26c1.34-0.95 2.86-1.64 4.48-2.12l30.79-767.42c-26.97-1.08-48.53-23.42-48.53-50.88 0-7.33 1.56-14.27 4.31-20.57l-563.23-250.42c-1.01 1.61-2.31 3.03-3.84 4.15zm1491.33 1026.62c-0.03-0.39-0.11-0.77-0.11-1.17 0-8.23 6.62-14.91 14.78-14.91 2.4 0 4.63 0.64 6.64 1.66l225.36-450.13c-9.23-4.18-16.95-11.07-22.23-19.67l-1117.46 551.81q0.64 1.73 0.82 3.61z"/>
					</g>
				</g>
			</g>
			<g id="&lt;Group&gt;">
				<g id="&lt;title&gt; 3 ">
				</g>
				<g id="&lt;desc&gt; 3 ">
				</g>
				<g id="Page-1 3 ">
					<g id="Group-Copy-9 3 ">
						<path id="Fill-4 3 " fill-rule="evenodd" class="s7" d="m5175.07 122.88c-62.2 147.41-120.01 303.23-170.43 470.3 7.87 3.45 13.38 11.35 13.38 20.56 0 12.38-9.97 22.42-22.24 22.42q-1.97-0.01-3.85-0.35c-26.61 90-51.05 183.21-72.83 280.08 9.18 2.76 15.86 11.33 15.86 21.47 0 12.38-9.97 22.42-22.26 22.42-6.81 0-12.9-3.09-16.98-7.95-213.08 152.76-395.02 279.88-589.1 389.21 1.14 2.7 1.79 5.68 1.79 8.8 0 12.38-9.96 22.42-22.26 22.42-12.29 0-22.26-10.04-22.26-22.42 0-3.71 0.91-7.2 2.49-10.28-254.7-159.81-537.47-289.69-857.71-375.98-3 8.83-11.28 15.19-21.06 15.19-12.29 0-22.26-10.03-22.26-22.42 0-7.73 3.88-14.54 9.78-18.57-118.43-221.73-211.04-415.33-286.12-629.76-1.69 0.43-3.47 0.67-5.28 0.67-12.31 0-22.26-10.03-22.26-22.42 0-12.38 9.95-22.43 22.26-22.43 2.36 0 4.66 0.39 6.79 1.08 196.48-304.38 353.98-640.36 461.59-1015.15-7.47-3.6-12.63-11.29-12.63-20.2 0-12.37 9.97-22.41 22.25-22.41 11.93 0 21.62 9.45 22.21 21.31 376.06 18.64 742.54 94.43 1248.48 113.14 1.17-11.3 10.63-20.07 22.13-20.07 12.3 0 22.25 10.03 22.25 22.41 0 7.41-3.56 13.93-9.04 18.01 129.59 259 228.8 476.94 309.33 717.87 1.63-0.38 3.33-0.61 5.1-0.61 12.29 0 22.25 10.05 22.25 22.43 0 12.38-9.96 22.42-22.25 22.42-2.5 0-4.89-0.44-7.12-1.19zm-499.08 813.38c93.63-98.43 193.72-200.43 304.98-305.8-2.95-2.66-5.2-6.07-6.43-9.96-502.57 64.81-913.6 25.21-1498.78 68.42q0.07 0.82 0.08 1.66c0 4.06-1.08 7.86-2.95 11.14 275.62 159.75 544.68 361.6 798.02 631.81 3.97-3.79 9.33-6.12 15.24-6.12 6.06 0 11.54 2.45 15.55 6.39 121.03-124.99 241.18-257.65 374.29-397.54zm-1116.42-1684.36c-5.1 520.16-61.2 907.09-94.62 1276-4.26 46.96-8.11 93.64-11.48 140.26 0.05 0 0.07-0.01 0.12-0.01 5.31 0 10.17 1.88 13.98 5 308.01-291.78 549.4-595.05 791.88-893.19-4.97-4.1-8.13-10.35-8.13-17.35 0-4.32 1.23-8.33 3.33-11.76-235.54-146.42-462.12-313.24-677.5-505.11-3.99 3.87-9.42 6.26-15.42 6.26q-1.08 0-2.16-0.1zm1421.47 1345.05c-218.13-294.38-454.24-533.14-692.92-817.39-3.9 3.41-8.98 5.48-14.56 5.48-4.76 0-9.16-1.52-12.78-4.07-181.72 223.28-362.72 449.49-571.49 671.58-70 74.45-143.16 148.44-220.48 221.7 3.6 3.42 6.07 8.02 6.8 13.19 227.53-16.87 428.82-21.22 619.34-24.04 299.22-4.41 572.08-5.1 879.13-44.7q-0.56-2.4-0.57-4.96c0-6.7 2.93-12.68 7.53-16.79zm13.55-5.58c-18.28-351.42-32.79-632.22-76.71-922.38-14.98-99.05-33.46-199.23-56.61-303.66-2.12 0.69-4.39 1.05-6.72 1.05-7.35 0-13.86-3.61-17.91-9.15-202.29 127.05-376.35 258.04-544.78 392.61 2.48 3.63 3.96 8.04 3.96 12.77 0 6.21-2.49 11.81-6.52 15.86 169.99 202.41 338.67 381.72 500.47 574.35 65.49 77.96 129.83 158.2 192.7 242.96 3.41-2.57 7.59-4.17 12.12-4.41zm-162.3-1247.42q0.01-0.38 0.04-0.77c-505.75-18.52-872.23-94.11-1248.39-112.56-0.24 5.28-2.28 10.09-5.55 13.8 94.32 84.1 190.77 163.44 289.21 238.3 126.2 95.96 255.64 184.62 387.9 266.83 4.05-5.65 10.62-9.35 18.06-9.35 6.99 0 13.21 3.24 17.29 8.31 168.46-134.66 342.52-265.68 544.79-392.73-2.11-3.45-3.35-7.47-3.35-11.83zm-1740.19 921.55c8.14 3.34 13.87 11.37 13.87 20.77 0 6.01-2.36 11.47-6.18 15.5 105.71 122.95 218.79 242.45 338.22 372.81 3.55-3.51 8.26-5.83 13.5-6.32 20.1-276.72 58.5-555.42 83.41-885.86 12.26-162.43 21.22-337.39 23.16-530.72q-2.37-0.4-4.54-1.26c-107.59 374.72-265.05 710.7-461.44 1015.08zm284.71 671.25c3.2-1.79 6.88-2.83 10.8-2.83q1.49 0.01 2.93 0.22c16.88-74.41 35.09-148.56 54.06-223.06-7.8-3.49-13.26-11.34-13.26-20.5 0-5.61 2.05-10.72 5.44-14.66-94.45-103-184.93-199.2-270.94-295.64-22.85-25.62-45.35-51.27-67.57-77.06-2.1 1.83-4.54 3.27-7.23 4.21 75.03 214.27 167.56 407.77 285.77 629.32zm890.39 401.35q1.17-1.88 2.64-3.49-34.13-36.41-68.64-71.2c-233.02-234.84-478.37-414.98-729.17-560.27-4 5.96-10.77 9.86-18.44 9.86-2.53 0-4.95-0.44-7.21-1.22-18.89 74.37-37.02 148.41-53.84 222.71 9.92 2.26 17.33 11.18 17.33 21.86 0 1.98-0.28 3.9-0.76 5.75 320.4 86.27 603.27 216.19 858.09 376zm723.17-702.64c-3-0.74-5.75-2.11-8.11-3.94-269.48 255.36-473.13 490.76-679.17 703.8q1.48 1.75 2.59 3.76c194.05-109.23 375.96-236.2 588.9-388.74-2.6-3.67-4.13-8.14-4.13-12.98 0-12.39 9.96-22.43 22.25-22.43 1.7 0 3.33 0.21 4.91 0.56 21.76-96.83 46.16-190.05 72.76-280.03zm183.08-513.18c-7.95-3.42-13.53-11.37-13.53-20.63 0-9.9 6.38-18.3 15.22-21.27-80.48-240.75-179.59-458.59-308.92-717.35-1 0.61-2.01 1.16-3.09 1.61 91.1 410.54 108.75 754.88 133.16 1226.7 2.4 0.05 4.7 0.49 6.86 1.26 50.39-167.05 108.14-322.91 170.3-470.32z"/>
						<path id="Fill-8 3 " fill-rule="evenodd" class="s8" d="m5147.9 484.37l-495.65 567.34c1.76 2.45 2.82 5.44 2.82 8.69 0 8.24-6.62 14.91-14.79 14.91-6.67 0-12.25-4.5-14.09-10.63l-892.76 71.24c-0.78 7.5-6.99 13.37-14.64 13.37-8.16 0-14.77-6.68-14.77-14.91 0-3.86 1.49-7.36 3.89-10.01l-576.32-1087.85c-1.83 0.83-3.84 1.3-5.97 1.3-8.17 0-14.79-6.67-14.79-14.9 0-8.25 6.62-14.92 14.79-14.92 3.81 0 7.26 1.52 9.89 3.92l538.59-599.26c-4.68-5.28-7.54-12.2-7.54-19.85 0-16.46 13.23-29.8 29.57-29.8 12.88 0 23.82 8.32 27.87 19.95l378.56-90.31c-0.28-2.17-0.48-4.37-0.48-6.62 0-28.17 22.64-50.98 50.57-50.98 22.21 0 41.04 14.44 47.82 34.52l191.92-44.64q-0.28-1.39-0.29-2.86c0-8.23 6.62-14.91 14.79-14.91 8.16 0 14.78 6.68 14.78 14.91 0 3.11-0.95 5.98-2.56 8.37l617.24 422.84c2.64-2.46 6.13-4 10-4 8.18 0 14.8 6.67 14.8 14.9 0 6.32-3.91 11.7-9.41 13.86l109.14 780.51c6.44 1.63 11.22 7.44 11.22 14.43 0 8.23-6.62 14.91-14.78 14.91-3.6 0-6.86-1.35-9.42-3.52zm-497.76 565l495.58-567.26c-1.59-2.04-2.64-4.5-2.99-7.21l-200.37 64.68c0.77 3.53 1.21 7.19 1.21 10.96 0 28.16-22.65 50.99-50.57 50.99-6.28 0-12.27-1.21-17.82-3.32l-225.64 450.66q0.31 0.24 0.6 0.5zm-918.91 76.98l1117.21-551.7c-3.83-7.17-6.01-15.39-6.01-24.11 0-2.65 0.26-5.22 0.64-7.76l-1046.13-229.9c-4.94 22.48-24.59 39.34-48.26 39.84l-30.76 766.85c0.3-0.02 0.58-0.1 0.87-0.1 5.24 0 9.81 2.75 12.44 6.88zm-590.83-1103.43c0 1.77-0.36 3.46-0.93 5.04l563.25 250.44c8.41-16.38 25.34-27.6 44.89-27.6 6.46 0 12.61 1.27 18.27 3.49l364.25-922.66c-8-4.02-14.81-10.1-19.7-17.56l-971.28 702.89c0.79 1.83 1.25 3.84 1.25 5.96zm1891.18-358.74c0-2.04 0.41-4 1.15-5.76l-833.15-353.49c-3.91 9.89-10.8 18.23-19.56 23.92l689.98 1176.32c6.9-3.56 14.7-5.62 23-5.62q5.4 0.01 10.48 1.12l140.37-821.82c-6.96-1.2-12.27-7.29-12.27-14.67zm-898.64-331.2l-364.18 922.54c17.35 8.07 29.42 25.73 29.42 46.27 0 2.72-0.27 5.39-0.68 8l1046.1 229.9c3.03-14.04 11.79-25.89 23.67-32.99l-689.9-1176.22c-7.31 4.14-15.73 6.54-24.72 6.54-6.99 0-13.64-1.44-19.71-4.04zm915.78 345.89q-0.86 0.12-1.74 0.18l-140.47 822.39c16.92 4.74 30.25 18.08 35.08 35.09l201.08-64.9c0.69-7.59 6.94-13.56 14.65-13.56 0.12 0 0.23 0.04 0.35 0.04zm-847.33-406.29c1.16 4.3 1.84 8.78 1.84 13.45 0 5.57-0.92 10.93-2.56 15.95l49.37 20.96 784.22 332.72q0.01 0 0.01 0l-617.21-422.82c-2.65 2.56-6.22 4.13-10.16 4.13-6.11 0-11.34-3.72-13.6-9.03zm-1063.68 741.56l971.1-702.77c-2.71-4.77-4.71-10.02-5.78-15.62l-378.15 90.21c0.51 2.21 0.81 4.49 0.81 6.85 0 16.46-13.23 29.83-29.56 29.83-7.64 0-14.58-2.95-19.83-7.76zm-3.42 20.8l576.02 1087.26c1.34-0.95 2.86-1.64 4.48-2.11l30.79-767.42c-26.97-1.09-48.52-23.43-48.52-50.88 0-7.33 1.56-14.28 4.31-20.58l-563.24-250.42c-1.01 1.61-2.31 3.03-3.84 4.15zm1491.34 1026.62c-0.03-0.39-0.11-0.76-0.11-1.17 0-8.22 6.62-14.91 14.77-14.91 2.4 0 4.63 0.64 6.64 1.67l225.36-450.14c-9.22-4.18-16.94-11.06-22.23-19.66l-1117.45 551.81q0.63 1.72 0.82 3.61z"/>
					</g>
				</g>
			</g>
			<g id="&lt;Group&gt;">
				<g id="&lt;title&gt; 5 ">
				</g>
				<g id="&lt;desc&gt; 5 ">
				</g>
				<g id="Page-1 5 ">
					<g id="Group-Copy-9 5 ">
						<path id="Fill-4 5 " fill-rule="evenodd" class="s9" d="m-896.1 4979.5c97.86-231.92 188.81-477.08 268.14-739.93-12.38-5.43-21.05-17.85-21.05-32.35 0-19.48 15.68-35.27 34.99-35.27 2.07 0 4.08 0.21 6.05 0.56 41.87-141.6 80.31-288.26 114.58-440.65-14.43-4.35-24.94-17.83-24.94-33.78 0-19.48 15.68-35.28 35.01-35.28 10.71 0 20.29 4.86 26.72 12.51 335.24-240.35 621.48-440.35 926.83-612.34-1.79-4.26-2.82-8.94-2.82-13.86 0-19.48 15.68-35.27 35.03-35.27 19.33 0 35.02 15.79 35.02 35.27 0 5.84-1.43 11.33-3.92 16.18 400.72 251.43 845.6 455.77 1349.44 591.53 4.71-13.89 17.74-23.91 33.14-23.91 19.33 0 35.01 15.8 35.01 35.29 0 12.16-6.1 22.88-15.38 29.21 186.31 348.85 332.02 653.44 450.15 990.8 2.66-0.67 5.45-1.05 8.3-1.05 19.36 0 35.03 15.78 35.03 35.27 0 19.48-15.67 35.29-35.03 35.29-3.72 0-7.33-0.62-10.68-1.7-309.12 478.88-556.91 1007.48-726.21 1597.13 11.74 5.67 19.87 17.76 19.87 31.78 0 19.46-15.7 35.26-35.01 35.26-18.77 0-34.02-14.86-34.95-33.53-591.65-29.32-1168.23-148.57-1964.22-178-1.85 17.78-16.74 31.58-34.82 31.58-19.35 0-35.01-15.78-35.01-35.26 0-11.65 5.6-21.92 14.22-28.34-203.88-407.48-359.97-750.36-486.67-1129.42-2.57 0.6-5.25 0.97-8.02 0.97-19.33 0-35.01-15.82-35.01-35.29 0-19.48 15.68-35.27 35.01-35.27 3.92 0 7.69 0.68 11.2 1.87zm785.21-1279.69c-147.32 154.85-304.79 315.32-479.84 481.11 4.65 4.17 8.19 9.54 10.12 15.67 790.7-101.96 1437.37-39.67 2358.03-107.65q-0.11-1.28-0.13-2.61c0-6.39 1.7-12.37 4.65-17.53-433.64-251.33-856.94-568.9-1255.52-994.02-6.26 5.95-14.68 9.62-23.98 9.62-9.53 0-18.15-3.84-24.47-10.05-190.41 196.65-379.45 405.36-588.86 625.46zm1756.46 2649.99c8.02-818.36 96.28-1427.12 148.86-2007.52 6.7-73.89 12.76-147.33 18.06-220.68-0.08 0-0.11 0.01-0.19 0.01-8.35 0-15.99-2.95-22-7.85-484.59 459.04-864.35 936.19-1245.86 1405.25 7.82 6.45 12.8 16.27 12.8 27.29 0 6.79-1.94 13.11-5.25 18.51 370.58 230.36 727.06 492.81 1065.91 794.69 6.29-6.1 14.83-9.86 24.27-9.86q1.7 0.01 3.4 0.16zm-2236.41-2116.16c343.18 463.14 714.66 838.79 1090.18 1285.99 6.14-5.36 14.13-8.62 22.9-8.62 7.49 0 14.42 2.4 20.11 6.41 285.91-351.29 570.67-707.19 899.13-1056.59 110.12-117.14 225.23-233.54 346.87-348.8-5.66-5.39-9.55-12.62-10.7-20.77-357.96 26.54-674.65 33.4-974.4 37.83-470.76 6.94-900.06 8.03-1383.14 70.32q0.89 3.79 0.9 7.81c0 10.54-4.6 19.96-11.85 26.42zm-21.32 8.78c28.77 552.89 51.6 994.67 120.69 1451.18 23.58 155.83 52.65 313.45 89.07 477.74 3.34-1.08 6.9-1.65 10.58-1.65 11.56 0 21.8 5.68 28.17 14.4 318.27-199.89 592.11-405.98 857.11-617.69-3.91-5.72-6.24-12.66-6.24-20.1 0-9.76 3.92-18.57 10.26-24.95-267.45-318.46-532.82-600.55-787.39-903.62-103.03-122.66-204.27-248.89-303.17-382.25-5.37 4.05-11.94 6.55-19.08 6.94zm255.36 1962.56c0 0.4-0.05 0.81-0.06 1.21 795.69 29.14 1372.27 148.07 1964.08 177.09 0.38-8.3 3.59-15.88 8.73-21.7-148.39-132.33-300.14-257.15-455-374.93-198.56-150.97-402.21-290.45-610.3-419.79-6.36 8.89-16.7 14.7-28.41 14.7-10.99 0-20.78-5.1-27.19-13.07-265.05 211.86-538.89 418-857.13 617.89 3.33 5.42 5.28 11.74 5.28 18.6zm2737.83-1449.88c-12.8-5.25-21.82-17.89-21.82-32.67 0-9.46 3.71-18.05 9.73-24.38-166.32-193.44-344.23-381.45-532.12-586.55-5.6 5.53-13 9.18-21.24 9.94-31.63 435.36-92.05 873.85-131.23 1393.73-19.29 255.54-33.39 530.82-36.45 834.98 2.48 0.43 4.89 1.08 7.15 1.98 169.27-589.55 417-1118.14 725.98-1597.03zm-447.93-1056.07c-5.04 2.82-10.82 4.46-16.98 4.46-1.58 0-3.11-0.14-4.62-0.35-26.57 117.07-55.21 233.73-85.05 350.93 12.27 5.49 20.86 17.84 20.86 32.26 0 8.82-3.23 16.87-8.56 23.06 148.6 162.06 290.95 313.4 426.27 465.13 35.95 40.32 71.36 80.67 106.3 121.24 3.31-2.87 7.16-5.14 11.38-6.62-118.05-337.11-263.62-641.55-449.6-990.11zm-1400.85-631.44q-1.84 2.96-4.16 5.49c35.8 38.18 71.8 75.55 107.99 112.02 366.61 369.47 752.63 652.89 1147.21 881.46 6.29-9.36 16.94-15.51 29.01-15.51 3.99 0 7.78 0.7 11.34 1.92 29.72-117 58.25-233.49 84.71-350.39-15.6-3.55-27.26-17.58-27.26-34.38 0-3.13 0.44-6.14 1.2-9.05-504.08-135.74-949.13-340.13-1350.04-591.56zm-1137.76 1105.46c4.71 1.17 9.05 3.31 12.76 6.2 423.97-401.76 744.37-772.11 1068.53-1107.3q-2.33-2.74-4.06-5.9c-305.31 171.85-591.5 371.61-926.52 611.6 4.08 5.77 6.49 12.81 6.49 20.43 0 19.49-15.66 35.28-35.01 35.28-2.66 0-5.23-0.33-7.72-0.88-34.24 152.34-72.62 299-114.47 440.57zm-288.05 807.38c12.51 5.39 21.29 17.89 21.29 32.47 0 15.57-10.04 28.78-23.94 33.46 126.62 378.77 282.54 721.49 486.03 1128.6 1.56-0.95 3.15-1.82 4.85-2.54-143.33-645.9-171.09-1187.64-209.49-1929.96-3.78-0.08-7.4-0.77-10.79-1.98-79.29 262.83-170.15 508.03-267.95 739.95z"/>
						<path id="Fill-8 5 " fill-rule="evenodd" class="s10" d="m-853.35 4410.76l779.8-892.6c-2.76-3.85-4.43-8.55-4.43-13.67 0-12.96 10.41-23.45 23.26-23.45 10.51 0 19.28 7.07 22.18 16.73l1404.58-112.09c1.22-11.8 10.99-21.03 23.02-21.03 12.84 0 23.25 10.5 23.25 23.45 0 6.08-2.35 11.58-6.14 15.75l906.73 1711.51c2.88-1.3 6.04-2.05 9.4-2.05 12.85 0 23.27 10.5 23.27 23.44 0 12.99-10.42 23.49-23.27 23.49-6 0-11.43-2.4-15.57-6.17l-847.35 942.81c7.36 8.31 11.86 19.2 11.86 31.22 0 25.9-20.82 46.9-46.52 46.9-20.28 0-37.48-13.1-43.85-31.39l-595.59 142.08c0.44 3.41 0.76 6.88 0.76 10.42 0 44.32-35.63 80.21-79.57 80.21-34.95 0-64.56-22.72-75.24-54.31l-301.94 70.23c0.28 1.46 0.46 2.95 0.46 4.49 0 12.96-10.41 23.46-23.28 23.46-12.83 0-23.24-10.5-23.24-23.46 0-4.88 1.49-9.4 4.02-13.16l-971.1-665.25c-4.15 3.87-9.65 6.29-15.74 6.29-12.87 0-23.28-10.5-23.28-23.45 0-9.95 6.15-18.4 14.8-21.81l-171.71-1227.98c-10.13-2.55-17.65-11.7-17.65-22.69 0-12.96 10.41-23.45 23.25-23.45 5.68 0 10.8 2.12 14.83 5.53zm783.12-888.92l-779.69 892.47c2.5 3.22 4.15 7.09 4.7 11.34l315.24-101.75c-1.21-5.56-1.9-11.32-1.9-17.25 0-44.29 35.64-80.21 79.57-80.21 9.87 0 19.29 1.9 28.02 5.21l355.01-709.02c-0.32-0.27-0.65-0.51-0.95-0.79zm1445.73-121.11l-1757.72 867.99c6.03 11.29 9.46 24.21 9.46 37.93 0 4.17-0.41 8.21-1.01 12.21l1645.87 361.7c7.79-35.36 38.69-61.89 75.94-62.67l48.39-1206.49c-0.47 0.03-0.91 0.16-1.37 0.16-8.24 0-15.43-4.33-19.56-10.83zm929.54 1736.02c0-2.77 0.57-5.44 1.47-7.93l-886.16-394.01c-13.24 25.77-39.87 43.43-70.63 43.43-10.16 0-19.83-2-28.75-5.49l-573.07 1451.61c12.59 6.33 23.3 15.89 31 27.63l1528.11-1105.85c-1.24-2.89-1.97-6.04-1.97-9.39zm-2975.38 564.41c0 3.22-0.65 6.29-1.81 9.07l1310.78 556.14c6.16-15.55 17-28.68 30.78-37.63l-1085.55-1850.71c-10.85 5.61-23.12 8.85-36.17 8.85-5.67 0-11.17-0.62-16.5-1.76l-220.85 1292.96c10.96 1.89 19.32 11.47 19.32 23.08zm1413.82 521.08l572.96-1451.43c-27.29-12.7-46.29-40.48-46.29-72.8 0-4.28 0.43-8.47 1.07-12.58l-1645.82-361.7c-4.77 22.09-18.55 40.72-37.25 51.9l1085.43 1850.54c11.51-6.52 24.75-10.29 38.89-10.29 10.99 0 21.47 2.27 31.01 6.36zm-1440.8-544.19q1.36-0.19 2.74-0.28l221-1293.87c-26.61-7.46-47.59-28.44-55.19-55.21l-316.36 102.12c-1.08 11.94-10.91 21.33-23.05 21.33-0.19 0-0.36-0.07-0.55-0.07zm1333.11 639.21c-1.82-6.75-2.89-13.81-2.89-21.15 0-8.77 1.45-17.19 4.03-25.09l-77.68-32.99-1233.81-523.46q-0.02 0-0.02 0l971.05 665.22c4.17-4.02 9.78-6.5 16-6.5 9.61 0 17.83 5.85 21.39 14.21zm1673.49-1166.7l-1527.84 1105.68c4.26 7.5 7.41 15.76 9.09 24.56l594.94-141.92c-0.8-3.47-1.27-7.07-1.27-10.78 0-25.9 20.82-46.93 46.5-46.93 12.04 0 22.95 4.65 31.21 12.22zm5.38-32.74l-906.26-1710.58c-2.11 1.49-4.5 2.58-7.04 3.33l-48.44 1207.38c42.43 1.71 76.34 36.85 76.34 80.05 0 11.53-2.46 22.46-6.78 32.37l886.14 393.99c1.59-2.54 3.63-4.78 6.04-6.54zm-2346.32-1615.18c0.05 0.62 0.17 1.21 0.17 1.84 0 12.94-10.41 23.46-23.24 23.46-3.78 0-7.28-1-10.45-2.62l-354.56 708.2c14.52 6.58 26.66 17.41 34.98 30.94l1758.09-868.16c-0.68-1.81-1.09-3.7-1.29-5.68z"/>
					</g>
				</g>
			</g>
			<g id="&lt;Group&gt;">
				<g id="&lt;title&gt; 7 ">
				</g>
				<g id="&lt;desc&gt; 7 ">
				</g>
				<g id="Page-1 7 ">
					<g id="Group-Copy-9 7 ">
						<path id="Fill-4 7 " fill-rule="evenodd" class="s11" d="m781.06 2297.86c50.49-119.68 97.42-246.18 138.36-381.81-6.39-2.8-10.86-9.22-10.86-16.69 0-10.05 8.09-18.21 18.05-18.21q1.6 0.01 3.13 0.29c21.6-73.06 41.44-148.74 59.12-227.38-7.45-2.24-12.87-9.2-12.87-17.43 0-10.05 8.09-18.2 18.06-18.2 5.53 0 10.48 2.51 13.79 6.46 172.99-124.03 320.69-227.23 478.26-315.98-0.93-2.19-1.46-4.61-1.46-7.15 0-10.05 8.09-18.2 18.07-18.2 9.98 0 18.08 8.15 18.08 18.2 0 3.01-0.74 5.85-2.03 8.35 206.78 129.74 436.34 235.18 696.33 305.23 2.43-7.16 9.15-12.33 17.09-12.33 9.98 0 18.07 8.15 18.07 18.21 0 6.27-3.15 11.8-7.94 15.07 96.14 180.01 171.33 337.18 232.29 511.26q2.06-0.53 4.28-0.54c9.99 0 18.07 8.14 18.07 18.2 0 10.05-8.08 18.21-18.07 18.21-1.92 0-3.78-0.32-5.51-0.88-159.51 247.11-287.37 519.87-374.73 824.13 6.05 2.93 10.25 9.17 10.25 16.4 0 10.04-8.1 18.19-18.07 18.19-9.68 0-17.55-7.66-18.03-17.29-305.3-15.13-602.82-76.67-1013.56-91.85-0.95 9.17-8.63 16.29-17.96 16.29-9.99 0-18.07-8.14-18.07-18.19 0-6.02 2.89-11.32 7.34-14.62-105.2-210.27-185.75-387.2-251.12-582.8-1.33 0.31-2.71 0.5-4.14 0.5-9.98 0-18.07-8.16-18.07-18.21 0-10.05 8.09-18.2 18.07-18.2 2.02 0 3.96 0.35 5.78 0.97zm405.17-660.34c-76.02 79.91-157.27 162.71-247.6 248.26 2.4 2.16 4.23 4.93 5.22 8.09 408.01-52.61 741.7-20.47 1216.76-55.55q-0.05-0.66-0.06-1.35c0-3.29 0.88-6.38 2.4-9.04-223.76-129.69-442.19-293.56-647.86-512.93-3.23 3.08-7.58 4.97-12.38 4.97-4.91 0-9.36-1.98-12.62-5.19-98.26 101.48-195.8 209.17-303.86 322.74zm906.35 1367.43c4.14-422.29 49.68-736.41 76.81-1035.9 3.46-38.13 6.59-76.03 9.32-113.88q-0.05 0.01-0.1 0.01c-4.3 0-8.25-1.52-11.35-4.05-250.05 236.87-446.01 483.08-642.87 725.12 4.03 3.33 6.6 8.4 6.6 14.08 0 3.51-1 6.77-2.71 9.55 191.23 118.87 375.17 254.3 550.02 410.07 3.25-3.15 7.65-5.09 12.52-5.09q0.88 0.01 1.76 0.09zm-1154.01-1091.96c177.09 238.98 368.77 432.82 562.54 663.58 3.17-2.77 7.3-4.45 11.82-4.45 3.87 0 7.44 1.24 10.38 3.31 147.53-181.27 294.47-364.92 463.96-545.21 56.82-60.44 116.22-120.51 178.99-179.99-2.92-2.77-4.93-6.51-5.52-10.71-184.72 13.69-348.13 17.23-502.8 19.52-242.92 3.58-464.44 4.14-713.72 36.29q0.46 1.95 0.47 4.03c0 5.43-2.38 10.29-6.12 13.63zm-11 4.53c14.85 285.29 26.63 513.26 62.28 748.82 12.16 80.41 27.16 161.74 45.96 246.52 1.72-0.56 3.56-0.85 5.46-0.85 5.96 0 11.25 2.93 14.53 7.43 164.23-103.15 305.54-209.49 442.28-318.74-2.02-2.95-3.22-6.53-3.22-10.37 0-5.04 2.02-9.58 5.29-12.87-138-164.33-274.94-309.89-406.3-466.28-53.16-63.29-105.4-128.43-156.43-197.24-2.77 2.08-6.16 3.38-9.85 3.58zm131.77 1012.7q-0.01 0.31-0.03 0.62c410.58 15.04 708.1 76.41 1013.48 91.38 0.2-4.28 1.85-8.19 4.5-11.2-76.57-68.28-154.87-132.69-234.78-193.46-102.46-77.9-207.54-149.88-314.92-216.62-3.28 4.59-8.62 7.58-14.66 7.58-5.67 0-10.72-2.62-14.03-6.74-136.77 109.32-278.07 215.69-442.28 318.84 1.71 2.8 2.72 6.06 2.72 9.6zm1412.74-748.15c-6.6-2.71-11.26-9.23-11.26-16.86 0-4.88 1.92-9.31 5.03-12.58-85.83-99.82-177.63-196.84-274.59-302.67-2.88 2.85-6.7 4.74-10.95 5.13-16.32 224.65-47.5 450.92-67.72 719.18-9.95 131.86-17.23 273.9-18.81 430.86q1.93 0.32 3.69 1.02c87.35-304.21 215.18-576.97 374.61-824.08zm-231.13-544.95c-2.6 1.46-5.59 2.3-8.77 2.3q-1.21-0.01-2.38-0.18c-13.71 60.41-28.49 120.61-43.88 181.09 6.33 2.83 10.76 9.2 10.76 16.64 0 4.56-1.67 8.71-4.42 11.9 76.68 83.63 150.14 161.72 219.96 240.01 18.55 20.81 36.82 41.63 54.86 62.57 1.7-1.48 3.69-2.66 5.87-3.42-60.92-173.95-136.03-331.04-232-510.91zm-722.85-325.83q-0.95 1.53-2.15 2.84 27.71 29.56 55.73 57.8c189.17 190.65 388.36 336.9 591.97 454.84 3.24-4.83 8.74-8 14.96-8 2.06 0 4.02 0.36 5.86 0.99 15.33-60.38 30.06-120.48 43.71-180.8-8.05-1.84-14.07-9.08-14.07-17.74 0-1.62 0.23-3.17 0.62-4.67-260.11-70.05-489.76-175.52-696.63-305.26zm-587.1 570.43c2.43 0.61 4.67 1.71 6.59 3.2 218.77-207.31 384.1-398.42 551.37-571.37q-1.2-1.42-2.1-3.05c-157.54 88.68-305.22 191.76-478.09 315.59 2.11 2.98 3.35 6.61 3.35 10.54 0 10.06-8.08 18.21-18.07 18.21q-2.06-0.01-3.98-0.46c-17.67 78.61-37.47 154.29-59.07 227.34zm-148.63 416.62c6.45 2.78 10.98 9.23 10.98 16.75 0 8.04-5.18 14.85-12.35 17.27 65.34 195.45 145.79 372.3 250.79 582.37q1.2-0.75 2.51-1.31c-73.96-333.29-88.29-612.84-108.1-995.88-1.95-0.04-3.82-0.4-5.57-1.02-40.91 135.62-87.8 262.15-138.26 381.82z"/>
						<path id="Fill-8 7 " fill-rule="evenodd" class="s12" d="m803.11 2004.38l402.39-460.59c-1.43-1.99-2.29-4.41-2.29-7.05 0-6.69 5.37-12.1 12-12.1 5.43 0 9.95 3.65 11.45 8.63l724.77-57.84c0.64-6.09 5.68-10.85 11.89-10.85 6.62 0 11.99 5.42 11.99 12.1 0 3.14-1.21 5.98-3.16 8.13l467.87 883.15c1.49-0.67 3.12-1.05 4.86-1.05 6.63 0 12 5.41 12 12.09 0 6.7-5.37 12.12-12 12.12-3.1 0-5.9-1.24-8.04-3.18l-437.24 486.49c3.8 4.29 6.12 9.91 6.12 16.12 0 13.36-10.75 24.19-24.01 24.19-10.46 0-19.34-6.75-22.62-16.19l-307.33 73.31c0.23 1.76 0.39 3.55 0.39 5.38 0 22.87-18.38 41.39-41.06 41.39-18.03 0-33.31-11.73-38.82-28.03l-155.81 36.25q0.23 1.12 0.24 2.31c0 6.69-5.37 12.1-12.01 12.1-6.62 0-12-5.41-12-12.1 0-2.52 0.78-4.85 2.08-6.79l-501.09-343.28c-2.15 2-4.99 3.25-8.13 3.25-6.64 0-12.01-5.41-12.01-12.1 0-5.13 3.17-9.49 7.64-11.25l-88.61-633.65c-5.22-1.32-9.1-6.04-9.1-11.71 0-6.69 5.37-12.1 11.99-12.1 2.93 0 5.58 1.09 7.65 2.85zm404.1-458.69l-402.33 460.53c1.29 1.66 2.15 3.65 2.43 5.85l162.67-52.51c-0.63-2.87-0.98-5.84-0.98-8.9 0-22.85 18.39-41.39 41.05-41.39 5.1 0 9.96 0.98 14.47 2.69l183.18-365.86q-0.25-0.2-0.49-0.41zm746.01-62.49l-907 447.89c3.11 5.82 4.88 12.49 4.88 19.57 0 2.15-0.21 4.24-0.52 6.3l849.29 186.64c4.02-18.24 19.96-31.94 39.18-32.34l24.97-622.56c-0.24 0.02-0.47 0.09-0.7 0.09-4.26 0-7.97-2.24-10.1-5.59zm479.65 895.8c0-1.43 0.3-2.81 0.76-4.09l-457.26-203.31c-6.84 13.3-20.58 22.4-36.45 22.4-5.24 0-10.24-1.03-14.84-2.83l-295.7 749.05c6.49 3.26 12.02 8.2 15.99 14.25l788.52-570.62c-0.64-1.49-1.02-3.12-1.02-4.85zm-1535.32 291.24c0 1.66-0.34 3.25-0.94 4.68l676.38 286.98c3.18-8.03 8.77-14.81 15.88-19.42l-560.15-954.99c-5.6 2.9-11.93 4.57-18.67 4.57q-4.38-0.01-8.51-0.91l-113.96 667.18c5.66 0.98 9.97 5.92 9.97 11.91zm729.55 268.88l295.65-748.95c-14.08-6.55-23.89-20.89-23.89-37.56 0-2.21 0.22-4.37 0.55-6.49l-849.26-186.65c-2.46 11.4-9.57 21.02-19.22 26.79l560.09 954.89c5.94-3.36 12.78-5.31 20.07-5.31 5.67 0 11.08 1.17 16.01 3.28zm-743.47-280.8q0.7-0.1 1.41-0.15l114.04-667.65c-13.73-3.85-24.56-14.67-28.48-28.48l-163.24 52.69c-0.56 6.16-5.63 11-11.9 11-0.1 0-0.19-0.03-0.28-0.03zm687.9 329.84c-0.94-3.49-1.5-7.13-1.5-10.92 0-4.52 0.75-8.87 2.08-12.94l-40.08-17.02-636.66-270.11q-0.01 0-0.01 0l501.07 343.26c2.15-2.08 5.05-3.36 8.26-3.36 4.96 0 9.2 3.02 11.03 7.33zm863.54-602.02l-788.38 570.53c2.2 3.87 3.83 8.14 4.69 12.68l307-73.23c-0.41-1.79-0.66-3.65-0.66-5.57 0-13.36 10.75-24.21 24-24.21 6.21 0 11.84 2.4 16.1 6.3zm2.78-16.89l-467.64-882.68c-1.09 0.77-2.32 1.34-3.63 1.72l-25 623.02c21.9 0.88 39.39 19.02 39.39 41.31 0 5.95-1.26 11.59-3.5 16.7l457.26 203.3c0.82-1.31 1.87-2.46 3.12-3.37zm-1210.72-833.45c0.02 0.32 0.08 0.62 0.08 0.95 0 6.68-5.37 12.11-11.99 12.11-1.95 0-3.76-0.52-5.39-1.36l-182.96 365.44c7.49 3.4 13.76 8.99 18.05 15.97l907.19-447.98q-0.51-1.4-0.66-2.93z"/>
					</g>
				</g>
			</g>
			<g id="&lt;Group&gt;">
				<g id="&lt;title&gt; 6 ">
				</g>
				<g id="&lt;desc&gt; 6 ">
				</g>
				<g id="Page-1 6 ">
					<g id="Group-Copy-9 6 ">
						<path id="Fill-4 6 " fill-rule="evenodd" class="s13" d="m5312.2 4772.18c-66.09 156.64-127.52 322.23-181.1 499.77 8.36 3.66 14.21 12.06 14.21 21.85 0 13.15-10.58 23.82-23.63 23.82q-2.09-0.01-4.09-0.37c-28.27 95.64-54.24 194.69-77.39 297.63 9.75 2.93 16.85 12.04 16.85 22.81 0 13.16-10.59 23.83-23.65 23.83-7.23 0-13.71-3.29-18.05-8.45-226.43 162.34-419.77 297.42-626.01 413.59 1.21 2.88 1.91 6.04 1.91 9.36 0 13.16-10.59 23.83-23.66 23.83-13.06 0-23.66-10.67-23.66-23.83 0-3.94 0.97-7.65 2.65-10.92-270.66-169.83-571.14-307.85-911.45-399.54-3.19 9.38-11.99 16.14-22.39 16.14-13.05 0-23.64-10.66-23.64-23.83 0-8.21 4.12-15.45 10.38-19.73-125.84-235.62-224.26-441.35-304.04-669.22-1.8 0.45-3.68 0.71-5.61 0.71-13.08 0-23.66-10.66-23.66-23.82 0-13.16 10.58-23.84 23.66-23.84 2.51 0 4.95 0.42 7.22 1.15 208.78-323.45 376.15-680.49 490.5-1078.75-7.93-3.83-13.42-12-13.42-21.47 0-13.14 10.6-23.81 23.65-23.81 12.67 0 22.98 10.04 23.6 22.64 399.63 19.81 789.06 100.35 1326.7 120.23 1.25-12.01 11.31-21.33 23.52-21.33 13.07 0 23.65 10.66 23.65 23.82 0 7.87-3.79 14.8-9.61 19.14 137.71 275.23 243.14 506.82 328.71 762.85 1.74-0.41 3.55-0.66 5.42-0.66 13.06 0 23.65 10.68 23.65 23.84 0 13.15-10.59 23.82-23.65 23.82-2.65 0-5.19-0.46-7.57-1.26zm-530.35 864.34c99.51-104.59 205.87-212.98 324.1-324.96-3.14-2.82-5.53-6.44-6.83-10.58-534.07 68.87-970.85 26.79-1592.69 72.71q0.07 0.86 0.08 1.77c0 4.31-1.15 8.35-3.14 11.83 292.9 169.76 578.81 384.25 848.02 671.4 4.23-4.02 9.92-6.5 16.2-6.5 6.44 0 12.26 2.59 16.53 6.79 128.61-132.83 256.29-273.8 397.73-422.46zm-1186.37-1789.89c-5.42 552.75-65.03 963.92-100.55 1355.95-4.52 49.91-8.62 99.51-12.19 149.05 0.05 0 0.07-0.01 0.13-0.01 5.64 0 10.8 1.99 14.85 5.31 327.31-310.06 583.82-632.34 841.5-949.16-5.28-4.35-8.65-10.99-8.65-18.43 0-4.59 1.31-8.86 3.55-12.5-250.3-155.6-491.08-332.86-719.95-536.76-4.25 4.12-10.02 6.66-16.39 6.66q-1.15-0.01-2.3-0.11zm1510.54 1429.33c-231.79-312.83-482.7-566.55-736.34-868.61-4.15 3.63-9.54 5.83-15.47 5.83-5.05 0-9.74-1.62-13.58-4.34-193.11 237.28-385.45 477.66-607.3 713.66-74.38 79.12-152.13 157.74-234.29 235.6 3.82 3.63 6.45 8.52 7.23 14.02 241.78-17.93 455.68-22.56 658.14-25.55 317.96-4.69 607.93-5.42 934.22-47.5q-0.6-2.55-0.61-5.27c0-7.12 3.11-13.48 8-17.84zm14.4-5.93c-19.43-373.45-34.85-671.84-81.52-980.18-15.92-105.25-35.55-211.71-60.16-322.68-2.25 0.73-4.66 1.11-7.14 1.11-7.81 0-14.73-3.84-19.02-9.72-214.98 135.01-399.94 274.21-578.93 417.21 2.64 3.86 4.22 8.54 4.22 13.57 0 6.59-2.65 12.55-6.93 16.86 180.64 215.09 359.89 405.63 531.83 610.33 69.59 82.85 137.96 168.11 204.76 258.18 3.63-2.73 8.07-4.43 12.89-4.68zm-172.47-1325.58q0.01-0.41 0.04-0.82c-537.44-19.68-926.88-100.01-1326.61-119.61-0.25 5.61-2.42 10.72-5.89 14.65 100.23 89.38 202.72 173.69 307.32 253.25 134.11 101.96 271.66 196.17 412.21 283.54 4.3-6.01 11.28-9.93 19.19-9.93 7.43 0 14.04 3.44 18.37 8.82 179.02-143.09 363.98-282.33 578.93-417.34-2.24-3.66-3.56-7.93-3.56-12.56zm-1849.22 979.29c8.64 3.55 14.74 12.09 14.74 22.07 0 6.39-2.51 12.19-6.58 16.47 112.34 130.65 232.51 257.64 359.42 396.17 3.77-3.73 8.78-6.2 14.34-6.71 21.36-294.06 62.17-590.23 88.64-941.37 13.03-172.6 22.55-358.53 24.62-563.98q-2.52-0.42-4.84-1.34c-114.32 398.2-281.65 755.23-490.34 1078.69zm302.54 713.31c3.41-1.91 7.31-3.01 11.47-3.01q1.6 0.01 3.12 0.23c17.95-79.07 37.29-157.87 57.45-237.03-8.29-3.71-14.09-12.05-14.09-21.78 0-5.97 2.18-11.4 5.78-15.58-100.37-109.46-196.52-211.69-287.91-314.17-24.29-27.23-48.2-54.48-71.81-81.89-2.23 1.94-4.83 3.47-7.68 4.47 79.73 227.7 178.05 433.33 303.67 668.76zm946.18 426.49q1.25-2 2.81-3.71-36.27-38.69-72.94-75.66c-247.62-249.55-508.35-440.98-774.86-595.37-4.25 6.33-11.44 10.48-19.59 10.48-2.7 0-5.26-0.47-7.67-1.3-20.07 79.03-39.34 157.71-57.21 236.67 10.54 2.4 18.41 11.88 18.41 23.22 0 2.11-0.3 4.15-0.81 6.11 340.48 91.68 641.07 229.74 911.86 399.56zm768.48-746.66c-3.18-0.79-6.11-2.24-8.62-4.19-286.36 271.36-502.76 521.51-721.72 747.91q1.58 1.84 2.75 3.98c206.21-116.07 399.52-251 625.8-413.09-2.76-3.9-4.38-8.65-4.38-13.8 0-13.17 10.57-23.83 23.64-23.83 1.8 0 3.54 0.22 5.22 0.6 23.12-102.9 49.05-201.96 77.31-297.58zm194.56-545.34c-8.45-3.63-14.38-12.08-14.38-21.92 0-10.52 6.78-19.44 16.17-22.6-85.52-255.84-190.84-487.32-328.28-762.3-1.05 0.64-2.13 1.23-3.28 1.72 96.81 436.26 115.57 802.17 141.5 1303.55 2.56 0.06 5 0.53 7.29 1.34 53.55-177.52 114.93-343.14 180.98-499.79z"/>
						<path id="Fill-8 6 " fill-rule="evenodd" class="s14" d="m5283.33 5156.32l-526.7 602.89c1.87 2.61 2.99 5.78 2.99 9.24 0 8.75-7.03 15.84-15.71 15.84-7.09 0-13.02-4.78-14.98-11.3l-948.7 75.71c-0.83 7.96-7.42 14.2-15.55 14.2-8.67 0-15.7-7.09-15.7-15.84 0-4.11 1.58-7.82 4.14-10.64l-612.43-1156.01c-1.94 0.88-4.08 1.39-6.35 1.39-8.68 0-15.71-7.1-15.71-15.84 0-8.77 7.03-15.86 15.71-15.86 4.06 0 7.72 1.62 10.52 4.17l572.33-636.81c-4.98-5.61-8.01-12.97-8.01-21.09 0-17.49 14.06-31.67 31.42-31.67 13.69 0 25.31 8.85 29.62 21.2l402.27-95.97c-0.29-2.3-0.5-4.65-0.5-7.03 0-29.94 24.06-54.18 53.74-54.18 23.6 0 43.6 15.35 50.82 36.68l203.94-47.44q-0.3-1.47-0.31-3.03c0-8.75 7.03-15.84 15.72-15.84 8.67 0 15.7 7.09 15.7 15.84 0 3.3-1.01 6.35-2.72 8.89l655.91 449.34c2.81-2.62 6.52-4.26 10.64-4.26 8.68 0 15.72 7.09 15.72 15.84 0 6.72-4.16 12.43-10 14.73l115.98 829.42c6.84 1.72 11.92 7.9 11.92 15.33 0 8.75-7.03 15.84-15.7 15.84-3.83 0-7.3-1.44-10.02-3.74zm-528.94 600.41l526.63-602.81c-1.69-2.17-2.81-4.79-3.18-7.66l-212.92 68.73c0.81 3.76 1.28 7.65 1.28 11.65 0 29.92-24.07 54.18-53.74 54.18-6.67 0-13.04-1.29-18.93-3.52l-239.78 478.89q0.33 0.26 0.64 0.54zm-976.49 81.8l1187.21-586.27c-4.07-7.62-6.38-16.35-6.38-25.62 0-2.82 0.27-5.55 0.68-8.25l-1111.68-244.3c-5.26 23.88-26.13 41.8-51.29 42.33l-32.68 814.9c0.32-0.02 0.61-0.11 0.92-0.11 5.57 0 10.42 2.93 13.22 7.32zm-627.85-1172.57c0 1.88-0.38 3.68-0.99 5.36l598.54 266.12c8.94-17.4 26.93-29.32 47.71-29.32 6.86 0 13.39 1.35 19.42 3.7l387.06-980.47c-8.5-4.27-15.73-10.73-20.93-18.66l-1032.14 746.93c0.84 1.95 1.33 4.08 1.33 6.34zm2009.67-381.22c0-2.17 0.44-4.25 1.23-6.12l-885.35-375.64c-4.16 10.51-11.48 19.38-20.79 25.42l733.22 1250.03c7.33-3.79 15.61-5.98 24.43-5.98 3.82 0 7.54 0.42 11.14 1.19l149.17-873.31c-7.4-1.27-13.05-7.74-13.05-15.59zm-954.94-351.95l-386.99 980.34c18.43 8.58 31.26 27.35 31.26 49.18 0 2.89-0.29 5.72-0.72 8.49l1111.64 244.31c3.22-14.93 12.53-27.51 25.16-35.06l-733.13-1249.92c-7.78 4.41-16.72 6.95-26.27 6.95-7.43 0-14.5-1.53-20.95-4.29zm973.16 367.56q-0.91 0.13-1.85 0.19l-149.27 873.93c17.98 5.03 32.15 19.2 37.28 37.28l213.68-68.97c0.73-8.06 7.37-14.4 15.57-14.4 0.13 0 0.24 0.04 0.37 0.04zm-900.43-431.75c1.23 4.57 1.96 9.33 1.96 14.29 0 5.93-0.98 11.61-2.72 16.95l52.46 22.28 833.36 353.56q0.01 0 0.01 0l-655.88-449.31c-2.81 2.72-6.61 4.39-10.8 4.39-6.49 0-12.05-3.95-14.45-9.6zm-1130.33 788.03l1031.95-746.81c-2.88-5.07-5-10.65-6.14-16.59l-401.84 95.85c0.54 2.35 0.86 4.78 0.86 7.29 0 17.49-14.07 31.69-31.41 31.69-8.13 0-15.5-3.14-21.08-8.24zm-3.63 22.1l612.11 1155.39c1.43-1.01 3.04-1.75 4.76-2.25l32.72-815.5c-28.66-1.16-51.56-24.9-51.56-54.07 0-7.79 1.65-15.17 4.57-21.87l-598.52-266.11c-1.08 1.71-2.46 3.22-4.08 4.41zm1584.78 1090.95c-0.03-0.42-0.12-0.81-0.12-1.24 0-8.74 7.03-15.85 15.7-15.85 2.55 0 4.92 0.68 7.05 1.77l239.49-478.34c-9.81-4.44-18.01-11.76-23.63-20.89l-1187.47 586.38q0.68 1.83 0.87 3.83z"/>
					</g>
				</g>
			</g>
			<g id="&lt;Group&gt;">
				<g id="&lt;title&gt; 4 ">
				</g>
				<g id="&lt;desc&gt; 4 ">
				</g>
				<g id="Page-1 4 ">
					<g id="Group-Copy-9 4 ">
						<path id="Fill-4 4 " fill-rule="evenodd" class="s15" d="m8300.14 602.27c-62.21 147.41-120.01 303.23-170.43 470.3 7.87 3.45 13.38 11.35 13.38 20.56 0 12.38-9.97 22.42-22.25 22.42q-1.96-0.01-3.84-0.35c-26.61 90-51.05 183.22-72.83 280.08 9.17 2.76 15.85 11.33 15.85 21.47 0 12.38-9.96 22.42-22.25 22.42-6.81 0-12.9-3.09-16.98-7.95-213.08 152.77-395.02 279.89-589.1 389.21 1.14 2.7 1.79 5.68 1.79 8.81 0 12.38-9.97 22.42-22.26 22.42-12.29 0-22.27-10.04-22.27-22.42 0-3.72 0.92-7.21 2.5-10.29-254.7-159.81-537.47-289.69-857.72-375.98-2.99 8.83-11.27 15.2-21.06 15.2-12.28 0-22.25-10.04-22.25-22.43 0-7.73 3.88-14.54 9.78-18.57-118.43-221.73-211.04-415.33-286.12-629.76-1.69 0.43-3.47 0.67-5.28 0.67-12.31 0-22.26-10.03-22.26-22.42 0-12.38 9.95-22.43 22.26-22.43 2.36 0 4.66 0.39 6.79 1.08 196.48-304.38 353.98-640.36 461.58-1015.14-7.46-3.61-12.62-11.29-12.62-20.2 0-12.37 9.97-22.41 22.25-22.41 11.93 0 21.62 9.44 22.21 21.31 376.06 18.63 742.54 94.43 1248.47 113.13 1.18-11.3 10.64-20.07 22.14-20.07 12.29 0 22.25 10.03 22.25 22.41 0 7.41-3.57 13.94-9.04 18.01 129.59 259.01 228.8 476.94 309.33 717.88 1.63-0.39 3.33-0.62 5.1-0.62 12.28 0 22.25 10.05 22.25 22.43 0 12.38-9.97 22.42-22.25 22.42-2.5 0-4.89-0.44-7.12-1.19zm-499.08 813.38c93.63-98.43 193.72-200.42 304.98-305.8-2.95-2.65-5.21-6.06-6.43-9.96-502.57 64.81-913.6 25.22-1498.78 68.42q0.07 0.82 0.08 1.67c0 4.05-1.08 7.85-2.95 11.13 275.62 159.75 544.67 361.6 798.01 631.81 3.98-3.78 9.34-6.11 15.25-6.11 6.06 0 11.53 2.44 15.55 6.38 121.03-124.99 241.18-257.65 374.29-397.54zm-1116.42-1684.36c-5.1 520.16-61.2 907.09-94.62 1276-4.26 46.97-8.12 93.64-11.48 140.27 0.05 0 0.07-0.01 0.12-0.01 5.31 0 10.17 1.87 13.98 4.99 308.01-291.77 549.39-595.05 791.88-893.19-4.97-4.1-8.13-10.34-8.13-17.34 0-4.32 1.23-8.34 3.33-11.77-235.54-146.42-462.12-313.23-677.5-505.11-4 3.87-9.42 6.27-15.42 6.27q-1.08-0.01-2.16-0.11zm1421.47 1345.05c-218.13-294.37-454.24-533.14-692.92-817.38-3.91 3.41-8.98 5.47-14.56 5.47-4.76 0-9.17-1.52-12.78-4.07-181.73 223.28-362.72 449.49-571.5 671.58-69.99 74.45-143.15 148.44-220.47 221.7 3.6 3.42 6.07 8.02 6.8 13.2 227.52-16.87 428.82-21.23 619.34-24.05 299.21-4.41 572.08-5.1 879.13-44.69q-0.56-2.41-0.57-4.97c0-6.7 2.93-12.68 7.53-16.79zm13.55-5.58c-18.29-351.42-32.8-632.22-76.71-922.38-14.98-99.05-33.46-199.23-56.61-303.66-2.13 0.69-4.39 1.05-6.72 1.05-7.35 0-13.86-3.61-17.91-9.15-202.29 127.05-376.35 258.05-544.79 392.61 2.49 3.63 3.97 8.04 3.97 12.78 0 6.2-2.49 11.8-6.52 15.86 169.99 202.41 338.67 381.71 500.47 574.34 65.49 77.97 129.83 158.2 192.69 242.96 3.42-2.57 7.6-4.16 12.13-4.41zm-162.31-1247.42q0.02-0.38 0.04-0.76c-505.74-18.53-872.22-94.12-1248.38-112.56-0.24 5.27-2.28 10.09-5.55 13.79 94.32 84.11 190.77 163.44 289.21 238.31 126.2 95.95 255.64 184.61 387.9 266.82 4.05-5.65 10.62-9.34 18.06-9.34 6.99 0 13.21 3.23 17.28 8.3 168.47-134.66 342.52-265.68 544.8-392.73-2.11-3.45-3.36-7.47-3.36-11.83zm-1740.18 921.56c8.13 3.34 13.87 11.37 13.87 20.76 0 6.01-2.36 11.47-6.19 15.5 105.72 122.95 218.8 242.45 338.23 372.81 3.55-3.51 8.26-5.83 13.5-6.31 20.1-276.72 58.5-555.43 83.41-885.87 12.26-162.42 21.22-337.39 23.16-530.72q-2.37-0.4-4.54-1.26c-107.59 374.72-265.05 710.7-461.44 1015.09zm284.71 671.24c3.2-1.79 6.88-2.83 10.79-2.83q1.5 0.01 2.94 0.22c16.88-74.41 35.09-148.56 54.06-223.05-7.8-3.49-13.26-11.34-13.26-20.5 0-5.61 2.05-10.73 5.44-14.67-94.45-103-184.93-199.2-270.94-295.63-22.85-25.63-45.36-51.28-67.57-77.07-2.1 1.83-4.55 3.27-7.23 4.21 75.03 214.27 167.56 407.77 285.77 629.32zm890.39 401.35q1.17-1.88 2.64-3.49-34.13-36.41-68.64-71.2c-233.02-234.84-478.38-414.98-729.17-560.26-4 5.95-10.77 9.85-18.44 9.85-2.53 0-4.95-0.44-7.21-1.22-18.89 74.37-37.02 148.41-53.84 222.71 9.92 2.26 17.33 11.18 17.33 21.86 0 1.99-0.28 3.9-0.76 5.75 320.39 86.28 603.27 216.19 858.09 376zm723.17-702.64c-3-0.74-5.75-2.1-8.12-3.94-269.47 255.36-473.12 490.76-679.16 703.81q1.48 1.74 2.59 3.75c194.05-109.23 375.95-236.2 588.9-388.74-2.6-3.67-4.13-8.14-4.13-12.98 0-12.39 9.95-22.43 22.25-22.43 1.69 0 3.33 0.21 4.91 0.56 21.76-96.83 46.16-190.05 72.76-280.03zm183.08-513.18c-7.95-3.42-13.53-11.37-13.53-20.63 0-9.9 6.38-18.29 15.22-21.27-80.48-240.75-179.59-458.59-308.93-717.35-0.99 0.61-2 1.16-3.08 1.62 91.1 410.54 108.75 754.87 133.15 1226.69 2.41 0.05 4.71 0.5 6.86 1.26 50.4-167.05 108.15-322.91 170.31-470.32z"/>
						<path id="Fill-8 4 " fill-rule="evenodd" class="s16" d="m8272.97 963.76l-495.65 567.34c1.76 2.45 2.82 5.44 2.82 8.69 0 8.24-6.62 14.91-14.79 14.91-6.68 0-12.25-4.49-14.09-10.63l-892.77 71.24c-0.78 7.5-6.98 13.37-14.63 13.37-8.16 0-14.78-6.68-14.78-14.91 0-3.86 1.49-7.36 3.9-10.01l-576.32-1087.85c-1.83 0.83-3.84 1.31-5.98 1.31-8.16 0-14.78-6.68-14.78-14.9 0-8.26 6.62-14.93 14.78-14.93 3.82 0 7.27 1.52 9.9 3.92l538.58-599.26c-4.67-5.28-7.53-12.2-7.53-19.84 0-16.46 13.23-29.81 29.57-29.81 12.88 0 23.82 8.33 27.87 19.95l378.56-90.31c-0.28-2.16-0.48-4.37-0.48-6.62 0-28.17 22.64-50.98 50.57-50.98 22.21 0 41.04 14.44 47.82 34.52l191.92-44.64q-0.28-1.39-0.29-2.85c0-8.24 6.61-14.91 14.79-14.91 8.16 0 14.78 6.67 14.78 14.91 0 3.1-0.95 5.97-2.56 8.36l617.23 422.84c2.64-2.46 6.14-4 10.01-4 8.18 0 14.8 6.67 14.8 14.91 0 6.32-3.91 11.69-9.41 13.86l109.14 780.51c6.44 1.62 11.22 7.44 11.22 14.42 0 8.24-6.62 14.91-14.78 14.91-3.61 0-6.86-1.35-9.42-3.52zm-497.76 565.01l495.58-567.27c-1.59-2.04-2.64-4.5-2.99-7.2l-200.37 64.67c0.77 3.54 1.21 7.2 1.21 10.97 0 28.15-22.66 50.98-50.58 50.98-6.27 0-12.26-1.21-17.81-3.32l-225.64 450.66q0.31 0.25 0.6 0.51zm-918.92 76.98l1117.22-551.7c-3.83-7.18-6.01-15.4-6.01-24.11 0-2.66 0.26-5.23 0.64-7.77l-1046.13-229.9c-4.95 22.48-24.59 39.35-48.26 39.84l-30.76 766.85c0.3-0.02 0.58-0.1 0.87-0.1 5.24 0 9.81 2.75 12.43 6.89zm-590.82-1103.43c0 1.76-0.36 3.45-0.93 5.04l563.24 250.43c8.42-16.38 25.35-27.6 44.9-27.6 6.46 0 12.6 1.27 18.27 3.49l364.25-922.66c-8-4.02-14.81-10.1-19.71-17.56l-971.27 702.89c0.79 1.83 1.25 3.84 1.25 5.97zm1891.18-358.74c0-2.05 0.41-4.01 1.15-5.77l-833.15-353.49c-3.92 9.89-10.8 18.24-19.56 23.92l689.98 1176.33c6.9-3.57 14.7-5.63 22.99-5.63q5.4 0.02 10.49 1.12l140.37-821.82c-6.97-1.2-12.27-7.29-12.27-14.66zm-898.64-331.21l-364.18 922.54c17.35 8.07 29.42 25.73 29.42 46.28 0 2.72-0.27 5.38-0.68 7.99l1046.1 229.9c3.03-14.04 11.79-25.89 23.67-32.99l-689.9-1176.22c-7.32 4.15-15.73 6.55-24.72 6.55-6.99 0-13.65-1.45-19.71-4.05zm915.78 345.89q-0.86 0.12-1.74 0.18l-140.47 822.4c16.91 4.73 30.25 18.07 35.08 35.08l201.08-64.9c0.69-7.59 6.94-13.56 14.65-13.56 0.12 0 0.23 0.04 0.35 0.04zm-847.33-406.28c1.15 4.29 1.83 8.78 1.83 13.44 0 5.58-0.92 10.93-2.55 15.95l49.37 20.96 784.22 332.72q0.01 0 0.01 0l-617.21-422.82c-2.65 2.56-6.22 4.13-10.17 4.13-6.1 0-11.33-3.72-13.59-9.03zm-1063.68 741.57l971.1-702.78c-2.71-4.77-4.71-10.02-5.78-15.61l-378.15 90.2c0.51 2.21 0.81 4.5 0.81 6.85 0 16.47-13.23 29.83-29.56 29.83-7.64 0-14.58-2.95-19.83-7.76zm-3.42 20.8l576.02 1087.26c1.34-0.94 2.86-1.64 4.48-2.11l30.79-767.42c-26.97-1.09-48.52-23.42-48.52-50.88 0-7.33 1.56-14.28 4.31-20.58l-563.24-250.42c-1.01 1.61-2.31 3.04-3.84 4.15zm1491.34 1026.62c-0.03-0.39-0.11-0.76-0.11-1.16 0-8.23 6.61-14.91 14.77-14.91 2.4 0 4.63 0.63 6.64 1.66l225.36-450.13c-9.23-4.19-16.94-11.07-22.23-19.67l-1117.46 551.81q0.64 1.72 0.82 3.61z"/>
					</g>
				</g>
			</g>
		</g>
	</g>
</svg>